<?xml version="1.0" encoding="UTF-8"?>
<svg id="Layer_1" xmlns="http://www.w3.org/2000/svg" version="1.1" viewBox="0 0 157.28 143.74">
  <!-- Generator: Adobe Illustrator 29.8.1, SVG Export Plug-In . SVG Version: 2.1.1 Build 2)  -->
  <defs>
    <style>
      .st0 {
        fill: none;
        stroke: #2475ea;
        stroke-linecap: round;
        stroke-linejoin: round;
        stroke-width: 2px;
      }

      .st1 {
        isolation: isolate;
      }

      .st2 {
        fill: #2475ea;
      }
    </style>
  </defs>
  <g class="st1">
    <g class="st1">
      <path class="st2" d="M61.17,114.02l6.27-16.33h2.33l6.69,16.33h-2.46l-1.91-4.95h-6.83l-1.79,4.95h-2.29ZM65.88,107.31h5.54l-1.71-4.52c-.52-1.38-.91-2.5-1.16-3.39-.21,1.05-.5,2.09-.88,3.12l-1.79,4.79Z"/>
      <path class="st2" d="M78.18,114.02v-16.33h6.16c1.08,0,1.91.05,2.49.16.8.13,1.47.39,2.02.76s.98.9,1.31,1.58c.33.68.5,1.42.5,2.23,0,1.39-.44,2.56-1.33,3.53-.88.96-2.48,1.44-4.79,1.44h-4.19v6.64h-2.16ZM80.34,105.45h4.22c1.4,0,2.39-.26,2.98-.78s.88-1.25.88-2.2c0-.68-.17-1.27-.52-1.76-.35-.49-.8-.81-1.37-.96-.36-.1-1.04-.14-2.02-.14h-4.18v5.84Z"/>
      <path class="st2" d="M93.77,114.02v-16.33h2.16v16.33h-2.16Z"/>
    </g>
  </g>
  <g>
    <path class="st0" d="M54.37,47.43v1.2c0,1.52,1.23,2.75,2.75,2.75h3.17c.36,0,.69.23.8.58.26.8.59,1.57.96,2.32.16.32.1.72-.16.97l-2.24,2.24c-1.07,1.07-1.07,2.81,0,3.88l2.67,2.67c1.07,1.07,2.81,1.07,3.88,0l2.24-2.24c.26-.26.65-.32.97-.16.74.38,1.52.7,2.32.96.35.11.58.44.58.8v3.17c0,1.52,1.23,2.75,2.75,2.75h3.78c1.52,0,2.75-1.23,2.75-2.75v-3.17c0-.36.23-.69.58-.8.8-.26,1.57-.59,2.32-.96.32-.16.72-.1.97.16l2.24,2.24c1.07,1.07,2.81,1.07,3.88,0l2.67-2.67c1.07-1.07,1.07-2.81,0-3.88l-2.24-2.24c-.26-.26-.32-.65-.16-.97.38-.74.7-1.52.96-2.32.11-.35.44-.58.8-.58h3.17c1.52,0,2.75-1.23,2.75-2.75v-3.78c0-1.52-1.23-2.75-2.75-2.75h-3.17c-.36,0-.69-.23-.8-.58-.26-.8-.59-1.57-.96-2.32-.16-.32-.1-.72.16-.97l2.24-2.24c1.07-1.07,1.07-2.81,0-3.88l-2.67-2.67c-1.07-1.07-2.81-1.07-3.88,0l-2.24,2.24c-.26.26-.65.32-.97.16-.74-.38-1.52-.7-2.32-.96-.35-.11-.58-.44-.58-.8v-3.17c0-1.52-1.23-2.75-2.75-2.75h-3.78c-1.52,0-2.75,1.23-2.75,2.75v3.17c0,.36-.23.69-.58.8-.8.26-1.57.59-2.32.96-.32.16-.72.1-.97-.16l-2.24-2.24c-1.07-1.07-2.81-1.07-3.88,0l-2.67,2.67c-1.07,1.07-1.07,2.81,0,3.88l2.24,2.24c.26.26.32.65.16.97-.38.74-.7,1.52-.96,2.32-.11.35-.44.58-.8.58h-3.17c-.95,0-1.79.48-2.28,1.21"/>
    <circle class="st0" cx="49.46" cy="66.36" r="2.84"/>
    <circle class="st0" cx="101.6" cy="72.04" r="2.84"/>
    <circle class="st0" cx="49.86" cy="27.07" r="2.84"/>
    <circle class="st0" cx="104.44" cy="27.07" r="2.84"/>
    <circle class="st0" cx="64.32" cy="79.98" r="4.77"/>
    <line class="st0" x1="67.36" y1="71.97" x2="66.01" y2="75.52"/>
    <line class="st0" x1="71.02" y1="62.35" x2="68.75" y2="68.33"/>
    <line class="st0" x1="58.86" y1="59.66" x2="51.78" y2="64.71"/>
    <line class="st0" x1="58.88" y1="33.62" x2="52.16" y2="28.74"/>
    <line class="st0" x1="102.13" y1="28.73" x2="95.04" y2="33.8"/>
    <line class="st0" x1="99.62" y1="70.01" x2="92.71" y2="62.92"/>
  </g>
</svg>