<?xml version="1.0" encoding="UTF-8"?>
<svg id="Layer_1" xmlns="http://www.w3.org/2000/svg" version="1.1" viewBox="0 0 157.28 143.74">
  <!-- Generator: Adobe Illustrator 29.8.1, SVG Export Plug-In . SVG Version: 2.1.1 Build 2)  -->
  <defs>
    <style>
      .st0 {
        fill-rule: evenodd;
      }

      .st0, .st1 {
        fill: #2475ea;
      }
    </style>
  </defs>
  <g>
    <path class="st0" d="M78.04,25.75l25.05,11.75c.99.47,1.42,1.65.95,2.64s-1.65,1.42-2.64.95l-24.98-11.72c-1.23-.58-2.04-.96-2.69-1.2-.63-.24-.95-.28-1.17-.28-.61.01-1.2.21-1.69.56-.18.13-.41.36-.77.93-.38.59-.8,1.38-1.44,2.57l-4.4,8.23c-.52.97-1.72,1.33-2.68.81-.97-.52-1.33-1.72-.81-2.68l4.44-8.3c.59-1.11,1.09-2.04,1.56-2.78.49-.77,1.04-1.46,1.79-2,1.15-.83,2.52-1.28,3.94-1.31.93-.02,1.78.21,2.63.53.82.31,1.78.76,2.92,1.29h-.01Z"/>
    <path class="st0" d="M64.92,37.27h35.98c2.01,0,3.64,0,4.96.11,1.36.11,2.57.35,3.69.92,1.77.9,3.21,2.34,4.11,4.11.57,1.12.81,2.33.92,3.69.11,1.32.11,2.95.11,4.96v3.23c0,1.09-.89,1.98-1.98,1.98s-1.98-.89-1.98-1.98v-3.15c0-2.11,0-3.58-.09-4.72-.09-1.12-.26-1.74-.5-2.21-.52-1.03-1.36-1.86-2.38-2.38-.47-.24-1.1-.41-2.21-.5-1.14-.09-2.61-.09-4.72-.09h-35.81c-2.11,0-3.58,0-4.72.09-1.12.09-1.74.26-2.21.5-1.03.52-1.86,1.36-2.38,2.38-.24.47-.41,1.1-.5,2.21-.09,1.14-.09,2.61-.09,4.72v18.84c0,1.09-.89,1.98-1.98,1.98s-1.98-.89-1.98-1.98v-18.92c0-2.01,0-3.64.11-4.96.11-1.36.35-2.57.92-3.69.9-1.77,2.34-3.21,4.11-4.11,1.12-.57,2.33-.81,3.69-.92,1.32-.11,2.95-.11,4.96-.11h-.03ZM112.71,69.07c1.09,0,1.98.89,1.98,1.98v3.68c0,2.01,0,3.64-.11,4.96-.11,1.36-.35,2.57-.92,3.69-.9,1.77-2.34,3.21-4.11,4.11-1.12.57-2.33.81-3.69.92-1.32.11-2.95.11-4.96.11h-22.23c-1.09,0-1.98-.89-1.98-1.98s.89-1.98,1.98-1.98h22.15c2.11,0,3.58,0,4.72-.09,1.12-.09,1.74-.26,2.21-.5,1.03-.52,1.86-1.36,2.38-2.38.24-.47.41-1.1.5-2.21.09-1.14.09-2.61.09-4.72v-3.59c0-1.09.89-1.98,1.98-1.98v-.02Z"/>
    <path class="st0" d="M115.5,56.18h-15.99c-3.03,0-5.48,2.45-5.48,5.48s2.45,5.48,5.48,5.48h15.99M115.5,56.18h.08-.08ZM115.58,56.18c.22.03.39.2.42.42v10.05M115.18,52.21c.29,0,.61,0,.9.04,2.01.26,3.59,1.84,3.85,3.85.04.29.04.6.04.9v9.32c0,.29,0,.61-.04.9-.26,2.01-1.84,3.59-3.85,3.85-.29.04-.6.04-.9.04h-15.67c-5.22,0-9.45-4.23-9.45-9.45s4.23-9.45,9.45-9.45h15.67ZM116,66.72c-.03.22-.2.39-.42.42l.42-.42Z"/>
    <path class="st0" d="M58.56,49.16c0-1.09.89-1.98,1.98-1.98h14.87c1.09,0,1.98.89,1.98,1.98s-.89,1.98-1.98,1.98h-14.87c-1.09,0-1.98-.89-1.98-1.98Z"/>
    <path class="st0" d="M73.49,72.24c.77.77.77,2.03,0,2.8l-12.02,12.02c-1.35,1.35-3.53,1.35-4.87,0h0l-5.49-5.49c-.77-.77-.77-2.03,0-2.8s2.03-.77,2.8,0l5.13,5.13,11.65-11.65c.77-.77,2.03-.77,2.8,0h0Z"/>
  </g>
  <g>
    <path class="st1" d="M40.41,105.58c.38-1.1,1.08-1.93,2.08-2.5.75-.42,1.56-.64,2.44-.64s1.67.23,2.4.71c.92.56,1.57,1.37,1.95,2.44l-.18.47c-.47.21-.95.56-1.43,1.04-.47.51-.78,1.03-.92,1.54h2.7v1.71h-3.7c-.31,0-.6-.15-.86-.44h-.08c-.24.26-.57.41-.99.47-.07.01-.13.02-.18.03-.68.11-1.16.38-1.43.81-.21.32-.32.76-.32,1.31,0,1.64,1.08,2.45,3.24,2.45.63,0,1.28-.1,1.97-.29v.71l-.89,1.09c-.37.11-.88.18-1.54.2-1.33,0-2.43-.32-3.29-.96-1.02-.74-1.53-1.83-1.53-3.28,0-.92.22-1.66.66-2.23.54-.75,1.37-1.23,2.5-1.45-.11-.49-.39-1-.82-1.51-.46-.55-.99-.96-1.58-1.23l-.18-.47ZM47.13,105.44c-.27-.47-.63-.82-1.09-1.04-.35-.17-.73-.25-1.16-.25-.45,0-.87.1-1.28.29-.45.22-.8.56-1.04,1.01.38.17.78.5,1.21,1.01.49.53.84,1.1,1.04,1.71h.07c.21-.63.58-1.23,1.09-1.8.41-.46.8-.77,1.16-.92Z"/>
    <path class="st1" d="M52.71,108.63c-.26-.32-.46-.71-.6-1.16-.12-.42-.18-.85-.18-1.28,0-.99.29-1.81.86-2.47.73-.87,1.75-1.31,3.07-1.31.94,0,1.72.25,2.35.76.68.58,1.03,1.37,1.03,2.35v2.97c0,.46-.15.87-.45,1.23-.36.41-.81.62-1.36.62h-8.08v-1.71h3.38ZM57.18,105.53c0-.46-.16-.83-.47-1.11-.25-.19-.53-.29-.86-.29-.73,0-1.25.29-1.58.86-.21.36-.32.81-.32,1.36,0,.75.24,1.34.71,1.76.38.35.88.52,1.5.52h.6c.28,0,.42-.14.42-.42v-2.69ZM55.85,98.92c.3,0,.56.11.77.32s.32.47.32.77-.11.54-.32.76c-.21.21-.47.32-.77.32s-.54-.11-.76-.32c-.21-.21-.32-.46-.32-.76s.11-.56.32-.77.46-.32.76-.32Z"/>
    <path class="st1" d="M62.52,102.52c.38-.07.82-.1,1.33-.1,1.29,0,2.33.42,3.12,1.24.71.75,1.06,1.68,1.06,2.79v1.61c0,.26,0,.45-.02.57h.44v1.71h-.22l-.55-.69h-.05c-.09.1-.18.2-.29.29-.34.27-.71.4-1.13.4h-5.39v-1.71h4.74c.28,0,.42-.14.42-.42v-1.56c0-.77-.24-1.39-.71-1.86-.44-.44-1.07-.67-1.9-.71-.38,0-.67.02-.86.07v-1.63Z"/>
    <path class="st1" d="M73.39,98.32v10.18c0,.47-.15.87-.45,1.21-.35.43-.8.64-1.36.64h-3.24v-1.71h2.59c.12,0,.23-.04.32-.13.08-.08.12-.17.12-.29v-9.89h2.03Z"/>
    <path class="st1" d="M77.76,98.32v11.61l-1.04.84h-1.01v-12.45h2.05Z"/>
    <path class="st1" d="M97.33,102.62v5.88c0,.47-.15.87-.44,1.19-.36.44-.82.66-1.38.66h-9.41c-.73,0-1.35-.24-1.88-.71-.71-.59-1.06-1.37-1.06-2.32v-2.65l1.04-.84h1.01v3.5c0,.39.13.71.4.96.26.24.55.35.89.35h8.35c.28,0,.42-.14.42-.42v-5.59h2.05ZM88.98,102.17c.3,0,.56.11.77.32s.32.47.32.77-.11.56-.32.77-.47.32-.77.32-.54-.11-.76-.32-.32-.47-.32-.77.11-.56.32-.77.46-.32.76-.32ZM91.55,102.17c.29,0,.54.11.76.32s.32.47.32.77-.11.56-.32.77-.46.32-.76.32-.56-.11-.77-.32c-.21-.21-.32-.47-.32-.77s.11-.56.32-.77c.21-.21.47-.32.77-.32Z"/>
    <path class="st1" d="M101.7,98.32v9.89c0,.11.03.2.1.27.07.1.17.15.32.15h.44v1.71h-1.09c-.46,0-.86-.16-1.21-.49-.4-.37-.6-.82-.6-1.36v-10.18h2.05Z"/>
    <path class="st1" d="M107.49,102.62v5.88c0,.44-.15.84-.44,1.21-.37.43-.83.64-1.38.64h-3.24v-1.71h2.59c.12,0,.23-.04.32-.13.08-.08.12-.17.12-.29v-5.59h2.03ZM106.1,111.57c.3,0,.56.11.77.32.21.21.32.47.32.77s-.11.56-.32.77-.47.32-.77.32-.56-.11-.76-.32-.31-.47-.31-.77.1-.56.31-.77c.21-.21.46-.32.76-.32Z"/>
    <path class="st1" d="M111.86,98.32v11.61l-1.04.84h-1.01v-12.45h2.05Z"/>
    <path class="st1" d="M117.76,110.35c-1.23,0-2.2-.42-2.91-1.26-.59-.72-.89-1.6-.89-2.65,0-1.25.35-2.23,1.06-2.94.74-.72,1.69-1.08,2.84-1.08.84,0,1.57.21,2.18.62.81.58,1.21,1.41,1.21,2.49v3.11h.54v1.71h-.55c-.08,1.21-.5,2.16-1.28,2.84-.54.48-1.18.81-1.93.99-.53.12-1.04.18-1.54.18-.17,0-.41-.01-.72-.03h-.05l-.86-1.06v-.74c.46.08.89.12,1.29.12,1.84,0,2.84-.77,3.01-2.3h-1.39ZM119.2,105.53c0-.45-.15-.8-.44-1.06-.26-.22-.56-.34-.91-.34-.57,0-1.02.2-1.36.6s-.5.96-.5,1.66.18,1.23.55,1.63c.37.4.87.6,1.51.6h1.14v-3.11Z"/>
    <path class="st1" d="M126.73,102.62v5.88c0,.44-.15.84-.44,1.21-.37.43-.83.64-1.38.64h-3.24v-1.71h2.59c.12,0,.23-.04.32-.13.08-.08.12-.17.12-.29v-5.59h2.03ZM125.33,111.57c.3,0,.56.11.77.32.21.21.32.47.32.77s-.11.56-.32.77-.47.32-.77.32-.56-.11-.76-.32-.31-.47-.31-.77.1-.56.31-.77c.21-.21.46-.32.76-.32Z"/>
  </g>
</svg>