<?xml version="1.0" encoding="UTF-8"?>
<svg id="Layer_1" xmlns="http://www.w3.org/2000/svg" version="1.1" viewBox="0 0 109.28 495.32">
  <!-- Generator: Adobe Illustrator 29.8.2, SVG Export Plug-In . SVG Version: 2.1.1 Build 3)  -->
  <defs>
    <style>
      .st0 {
        fill: #ccc;
        fill-rule: evenodd;
      }

      .st1 {
        fill: none;
        stroke: #ccc;
        stroke-miterlimit: 10;
      }
    </style>
  </defs>
  <line class="st1" x1="52.13" y1="66.03" x2="52.13" y2="460.32"/>
  <path class="st0" d="M57.15,64.4c0,2.66-2.15,4.81-4.81,4.81s-4.81-2.15-4.81-4.81,2.15-4.81,4.81-4.81,4.81,2.15,4.81,4.81Z"/>
  <path class="st0" d="M57.15,120.91c0,2.66-2.15,4.81-4.81,4.81s-4.81-2.15-4.81-4.81,2.15-4.81,4.81-4.81,4.81,2.15,4.81,4.81Z"/>
  <path class="st0" d="M57.15,177.42c0,2.66-2.15,4.81-4.81,4.81s-4.81-2.15-4.81-4.81,2.15-4.81,4.81-4.81,4.81,2.15,4.81,4.81Z"/>
  <path class="st0" d="M57.15,233.93c0,2.66-2.15,4.81-4.81,4.81s-4.81-2.15-4.81-4.81,2.15-4.81,4.81-4.81,4.81,2.15,4.81,4.81Z"/>
  <path class="st0" d="M57.15,290.44c0,2.66-2.15,4.81-4.81,4.81s-4.81-2.15-4.81-4.81,2.15-4.81,4.81-4.81,4.81,2.15,4.81,4.81Z"/>
  <path class="st0" d="M57.15,346.95c0,2.66-2.15,4.81-4.81,4.81s-4.81-2.15-4.81-4.81,2.15-4.81,4.81-4.81,4.81,2.15,4.81,4.81Z"/>
  <path class="st0" d="M57.15,403.47c0,2.66-2.15,4.81-4.81,4.81s-4.81-2.15-4.81-4.81,2.15-4.81,4.81-4.81,4.81,2.15,4.81,4.81Z"/>
  <path class="st0" d="M57.15,459.98c0,2.66-2.15,4.81-4.81,4.81s-4.81-2.15-4.81-4.81,2.15-4.81,4.81-4.81,4.81,2.15,4.81,4.81Z"/>
</svg>