<?xml version="1.0" encoding="UTF-8"?>
<svg id="Layer_1" xmlns="http://www.w3.org/2000/svg" version="1.1" viewBox="0 0 56.68 79.15">
  <!-- Generator: Adobe Illustrator 29.8.2, SVG Export Plug-In . SVG Version: 2.1.1 Build 3)  -->
  <defs>
    <style>
      .st0 {
        fill: #f4b942;
        fill-rule: evenodd;
      }
    </style>
  </defs>
  <path class="st0" d="M52.53,40.84c0-.18-.01-.38-.01-.47-.09-2.56-.38-6.33-1.37-10.93-.11-.59-.41-1.61-1.26-2.45-1.02-1-2.33-1.21-3.17-1.3-5.03-.55-11.51,1.11-17.12,2.6-.75.2-1.4.37-1.91.51-.51-.14-1.16-.31-1.91-.51-5.61-1.49-12.09-3.15-17.12-2.6-.84.09-2.15.3-3.17,1.3-.85.84-1.15,1.86-1.26,2.45-.98,4.6-1.28,8.37-1.37,10.93,0,.09,0,.29-.01.47,0,0-.29,11.23,1.27,21.29,0,.03,0,.04,0,.05.46,2.92,1.36,3.82,1.36,3.82.17.17.34.3.5.41,0,0,.21.14.44.25,1.03.51,2.48.68,2.48.68,2,.24,2.52.25,2.52.25,3.32.29,8.28.62,16.23.62h0s.02,0,.03,0,.02,0,.03,0h0c7.95,0,12.91-.33,16.23-.62,0,0,.52-.01,2.52-.25,0,0,1.45-.17,2.48-.68.23-.11.44-.25.44-.25.16-.11.33-.24.5-.41,0,0,.9-.9,1.36-3.82,0,0,0-.02,0-.05,1.56-10.06,1.27-21.29,1.27-21.29Z"/>
  <path class="st0" d="M27.45,26.67c-11.02-1.55-18.33-7.62-19.99-20.63,15.08,3.01,17.95,7.59,19.99,20.63h0Z"/>
  <path class="st0" d="M39.73,13.14c-8.34,1.49-12.09,6.34-12.8,13.33.17.07.35.14.53.19,8.04-1.74,10.86-3.92,12.27-13.53Z"/>
</svg>