<?xml version="1.0" encoding="UTF-8"?>
<svg xmlns="http://www.w3.org/2000/svg" xmlns:xlink="http://www.w3.org/1999/xlink" viewBox="0 0 209.87 170.04">
  <defs>
    <style>
      .cls-1 {
        fill: #fff;
      }

      .cls-2 {
        fill: none;
      }

      .cls-3 {
        fill: #f4b942;
      }

      .cls-4 {
        isolation: isolate;
      }

      .cls-5 {
        mix-blend-mode: overlay;
        opacity: .23;
      }

      .cls-6 {
        clip-path: url(#clippath);
      }
    </style>
    <clipPath id="clippath">
      <rect class="cls-2" x="11.51" y="11.72" width="186.85" height="146.6" rx="18.21" ry="18.21"/>
    </clipPath>
  </defs>
  <g class="cls-4">
    <g id="Layer_1" data-name="Layer 1">
      <g>
        <g class="cls-6">
          <image class="cls-5" width="1920" height="1080" transform="translate(-31.96 7.56) scale(.14)" xlink:href="../workers-control-room.jpg"/>
        </g>
        <g>
          <path class="cls-1" d="M101.45,95.17h-11.8c-.48,0-.86-.39-.86-.86s.39-.86.86-.86h11.8c.48,0,.86.39.86.86s-.39.86-.86.86Z"/>
          <path class="cls-1" d="M126.55,61.52c-.48,0-.86-.39-.86-.86v-1.38c0-.48.39-.86.86-.86s.86.39.86.86v1.38c0,.48-.39.86-.86.86Z"/>
          <path class="cls-1" d="M126.55,55.73c-.48,0-.86-.39-.86-.86v-1.38c0-.48.39-.86.86-.86s.86.39.86.86v1.38c0,.48-.39.86-.86.86Z"/>
          <path class="cls-1" d="M125.69,53.48v-.98c0-.72-.58-1.3-1.3-1.3h-45.97c-.72,0-1.3.58-1.3,1.3v28.08h48.58v-19.93c0-.48.39-.87.87-.87s.86.39.86.87v20.78c0,.48-.38.87-.86.87h-50.31c-.47,0-.86-.39-.86-.87v-28.93c0-1.67,1.36-3.02,3.02-3.02h45.97c1.67,0,3.02,1.36,3.02,3.02v.98c0,.48-.38.87-.86.87s-.87-.39-.87-.87Z"/>
          <path class="cls-1" d="M98.71,90.11h-1.19c-.48,0-.86-.39-.86-.86s.39-.86.86-.86h1.19c.48,0,.86.39.86.86s-.39.86-.86.86Z"/>
          <path class="cls-1" d="M113.16,95.17h-11.8c-.48,0-.86-.39-.86-.86s.39-.86.86-.86h11.8c.48,0,.86.39.86.86s-.39.86-.86.86Z"/>
          <path class="cls-1" d="M108.49,95.17h-14.17c-.48,0-.86-.39-.86-.86v-1.86c0-1.94,1.37-3.57,3.2-3.97v-3.01c0-.48.39-.86.86-.86h7.77c.48,0,.86.39.86.86v3.01c1.83.4,3.2,2.03,3.2,3.97v1.86c0,.48-.39.86-.86.86ZM95.18,93.44h12.44v-.99c0-1.29-1.05-2.34-2.34-2.34-.48,0-.86-.39-.86-.86v-2.91h-6.04v2.91c0,.48-.39.86-.86.86-1.29,0-2.34,1.05-2.34,2.34v.99Z"/>
          <path class="cls-1" d="M105.29,90.11h-1.19c-.48,0-.86-.39-.86-.86s.39-.86.86-.86h1.19c.48,0,.86.39.86.86s-.39.86-.86.86Z"/>
          <path class="cls-1" d="M83.93,86.34h-1.38c-.48,0-.86-.39-.86-.86s.39-.86.86-.86h1.38c.48,0,.86.39.86.86s-.39.86-.86.86Z"/>
          <path class="cls-1" d="M91.53,86.34h-1.38c-.48,0-.86-.39-.86-.86s.39-.86.86-.86h1.38c.48,0,.86.39.86.86s-.39.86-.86.86Z"/>
          <path class="cls-3" d="M85.6,69.2h-5.04c-.48,0-.87.39-.87.87v11.38c0,.48.39.87.87.87h5.04c.48,0,.86-.39.86-.87v-11.38c0-.48-.38-.87-.86-.87ZM81.42,80.58v-9.66h3.31v9.66h-3.31Z"/>
          <rect class="cls-3" x="81.42" y="70.93" width="3.31" height="9.66"/>
          <path class="cls-3" d="M94.76,66.22h-5.04c-.48,0-.87.39-.87.87v14.35c0,.48.39.87.87.87h5.04c.48,0,.86-.39.86-.87v-14.35c0-.48-.38-.87-.86-.87ZM90.59,80.58v-12.63h3.31v12.63h-3.31Z"/>
          <rect class="cls-3" x="90.59" y="67.95" width="3.31" height="12.63"/>
          <path class="cls-1" d="M103.92,82.3h-5.03c-.48,0-.86-.39-.86-.86v-8.21c0-.48.39-.86.86-.86h5.03c.48,0,.86.39.86.86v8.21c0,.48-.39.86-.86.86ZM99.75,80.58h3.31v-6.49h-3.31v6.49Z"/>
          <path class="cls-1" d="M113.08,82.3h-5.03c-.48,0-.86-.39-.86-.86v-18.1c0-.48.39-.86.86-.86h5.03c.48,0,.86.39.86.86v18.1c0,.48-.39.86-.86.86ZM108.91,80.58h3.31v-16.38h-3.31v16.38Z"/>
          <path class="cls-3" d="M122.25,56.62h-5.03c-.48,0-.87.39-.87.87v23.95c0,.48.39.87.87.87h5.03c.48,0,.87-.39.87-.87v-23.95c0-.48-.39-.87-.87-.87ZM118.07,80.58v-22.23h3.32v22.23h-3.32Z"/>
          <rect class="cls-3" x="118.07" y="58.35" width="3.32" height="22.23"/>
          <path class="cls-1" d="M85.59,62.73h-5.04c-.48,0-.86-.39-.86-.86s.39-.86.86-.86h5.04c.48,0,.86.39.86.86s-.39.86-.86.86Z"/>
          <path class="cls-1" d="M103.92,66.19h-5.03c-.48,0-.86-.39-.86-.86s.39-.86.86-.86h5.03c.48,0,.86.39.86.86s-.39.86-.86.86Z"/>
          <path class="cls-1" d="M127.41,81.44v1.5c0,1.88-1.52,3.4-3.4,3.4h-32.48c-.48,0-.87-.39-.87-.87s.39-.87.87-.87h32.48c.92,0,1.67-.75,1.67-1.67v-.63h-48.58v.63c0,.92.75,1.67,1.67,1.67h3.77c.48,0,.86.39.86.87s-.38.87-.86.87h-3.77c-1.88,0-3.4-1.53-3.4-3.4v-1.5c0-.48.39-.86.86-.86h50.31c.48,0,.86.38.86.86Z"/>
        </g>
      </g>
    </g>
  </g>
</svg>