<?xml version="1.0" encoding="UTF-8"?>
<svg id="Layer_1" data-name="Layer 1" xmlns="http://www.w3.org/2000/svg" viewBox="0 0 218.55 80.94">
  <defs>
    <style>
      .cls-1, .cls-2 {
        fill: #fff;
      }

      .cls-2 {
        fill-rule: evenodd;
      }
    </style>
  </defs>
  <g>
    <path class="cls-2" d="M45.42,42.78c0-.14,0-.31-.01-.38-.07-2.11-.32-5.21-1.12-8.99-.09-.48-.33-1.33-1.04-2.01-.84-.82-1.91-1-2.61-1.07-4.13-.46-9.47.91-14.09,2.14-.62.16-1.15.31-1.57.42-.42-.11-.96-.26-1.57-.42-4.61-1.22-9.95-2.59-14.09-2.14-.7.08-1.77.25-2.61,1.07-.7.69-.94,1.53-1.04,2.01-.81,3.79-1.05,6.89-1.12,8.99,0,.07,0,.24-.01.38,0,0-.24,9.24,1.04,17.52,0,.02,0,.04,0,.04.38,2.4,1.12,3.14,1.12,3.14.14.14.28.25.41.34,0,0,.17.11.36.21.85.42,2.04.56,2.04.56,1.64.19,2.07.2,2.07.2,2.73.24,6.82.51,13.36.51h0s.02,0,.03,0,.02,0,.03,0h0c6.54,0,10.63-.27,13.36-.51,0,0,.43,0,2.07-.2,0,0,1.19-.14,2.04-.56.19-.09.36-.21.36-.21.13-.09.27-.19.41-.34,0,0,.74-.74,1.12-3.14,0,0,0-.02,0-.04,1.29-8.28,1.04-17.52,1.04-17.52Z"/>
    <path class="cls-2" d="M24.78,31.12c-9.06-1.28-15.09-6.27-16.45-16.97,12.4,2.48,14.77,6.25,16.45,16.97h0Z"/>
    <path class="cls-2" d="M34.89,19.98c-6.86,1.23-9.94,5.22-10.53,10.97.14.06.29.11.43.16,6.62-1.43,8.93-3.22,10.1-11.13Z"/>
  </g>
  <g>
    <path class="cls-1" d="M65.54,48.32h-3.93l-1.14-3.56h-5.69l-1.13,3.56h-3.9l5.82-16h4.27l5.69,16ZM59.65,41.99l-1.72-5.38c-.13-.4-.22-.88-.27-1.44h-.09c-.04.47-.13.93-.28,1.39l-1.74,5.42h4.09Z"/>
    <path class="cls-1" d="M70.71,48.32h-3.52v-16.91h3.52v16.91Z"/>
    <path class="cls-1" d="M79.89,43.45h-6.1v-2.47h6.1v2.47Z"/>
    <path class="cls-1" d="M101.49,48.32h-3.56v-9.57c0-1.03.04-2.18.13-3.42h-.09c-.19.98-.35,1.69-.5,2.12l-3.75,10.88h-2.94l-3.81-10.76c-.1-.29-.27-1.03-.5-2.23h-.1c.1,1.58.15,2.96.15,4.15v8.85h-3.25v-16h5.28l3.27,9.48c.26.76.45,1.52.57,2.29h.07c.2-.88.41-1.65.64-2.31l3.27-9.46h5.14v16Z"/>
    <path class="cls-1" d="M110.22,48.6c-1.9,0-3.4-.53-4.49-1.6-1.09-1.07-1.63-2.52-1.63-4.34s.57-3.37,1.7-4.43c1.13-1.07,2.66-1.6,4.58-1.6s3.38.53,4.46,1.6c1.08,1.07,1.62,2.48,1.62,4.23,0,1.9-.56,3.39-1.67,4.5-1.11,1.1-2.63,1.65-4.57,1.65ZM110.31,39.32c-.83,0-1.48.29-1.94.86-.46.57-.69,1.38-.69,2.43,0,2.19.88,3.29,2.65,3.29s2.53-1.13,2.53-3.38c0-2.13-.85-3.2-2.55-3.2Z"/>
    <path class="cls-1" d="M125.65,48.18c-.52.28-1.31.41-2.35.41-2.48,0-3.73-1.29-3.73-3.87v-5.23h-1.85v-2.6h1.85v-2.47l3.51-1v3.47h2.57v2.6h-2.57v4.62c0,1.19.47,1.78,1.42,1.78.37,0,.75-.11,1.15-.32v2.61Z"/>
    <path class="cls-1" d="M137.14,48.32h-3.34v-1.64h-.04c-.77,1.28-1.9,1.92-3.4,1.92-1.11,0-1.98-.31-2.62-.94-.64-.63-.95-1.47-.95-2.52,0-2.22,1.31-3.5,3.94-3.84l3.1-.41c0-1.25-.68-1.87-2.03-1.87s-2.65.41-3.88,1.22v-2.65c.49-.25,1.16-.48,2.01-.67.85-.19,1.63-.29,2.33-.29,3.26,0,4.89,1.62,4.89,4.87v6.83ZM133.82,43.68v-.77l-2.07.27c-1.15.15-1.72.67-1.72,1.55,0,.4.14.73.42.99.28.26.66.38,1.13.38.66,0,1.2-.23,1.62-.69.42-.46.62-1.04.62-1.73Z"/>
    <path class="cls-1" d="M158.06,48.32h-3.51v-6.51c0-1.66-.61-2.49-1.83-2.49-.58,0-1.05.25-1.42.75-.36.5-.55,1.12-.55,1.86v6.39h-3.52v-6.58c0-1.61-.6-2.42-1.8-2.42-.6,0-1.08.24-1.44.71-.36.48-.54,1.12-.54,1.94v6.35h-3.52v-11.42h3.52v1.78h.04c.36-.61.88-1.11,1.53-1.49.66-.38,1.38-.57,2.16-.57,1.61,0,2.72.71,3.31,2.13.87-1.42,2.15-2.13,3.84-2.13,2.48,0,3.73,1.53,3.73,4.6v7.11Z"/>
    <path class="cls-1" d="M178.99,48.32h-3.51v-6.51c0-1.66-.61-2.49-1.83-2.49-.58,0-1.05.25-1.42.75-.36.5-.55,1.12-.55,1.86v6.39h-3.52v-6.58c0-1.61-.6-2.42-1.8-2.42-.6,0-1.08.24-1.44.71-.36.48-.54,1.12-.54,1.94v6.35h-3.52v-11.42h3.52v1.78h.04c.36-.61.88-1.11,1.53-1.49.66-.38,1.38-.57,2.16-.57,1.61,0,2.72.71,3.31,2.13.87-1.42,2.15-2.13,3.84-2.13,2.48,0,3.73,1.53,3.73,4.6v7.11Z"/>
    <path class="cls-1" d="M192.04,43.61h-7.45c.12,1.66,1.16,2.49,3.13,2.49,1.26,0,2.36-.3,3.31-.89v2.54c-1.06.57-2.43.85-4.12.85-1.84,0-3.28-.51-4.29-1.53-1.02-1.02-1.53-2.45-1.53-4.28s.55-3.4,1.65-4.51c1.1-1.11,2.45-1.66,4.06-1.66s2.95.49,3.87,1.48c.91.99,1.37,2.33,1.37,4.03v1.48ZM188.77,41.45c0-1.64-.66-2.45-1.99-2.45-.57,0-1.05.23-1.47.7-.41.47-.66,1.05-.75,1.75h4.21Z"/>
    <path class="cls-1" d="M212.27,48.32h-3.51v-6.51c0-1.66-.61-2.49-1.83-2.49-.58,0-1.05.25-1.42.75-.36.5-.55,1.12-.55,1.86v6.39h-3.52v-6.58c0-1.61-.6-2.42-1.8-2.42-.6,0-1.08.24-1.44.71-.36.48-.54,1.12-.54,1.94v6.35h-3.52v-11.42h3.52v1.78h.04c.36-.61.88-1.11,1.53-1.49.66-.38,1.38-.57,2.16-.57,1.61,0,2.72.71,3.31,2.13.87-1.42,2.15-2.13,3.84-2.13,2.48,0,3.73,1.53,3.73,4.6v7.11Z"/>
  </g>
  <g>
    <path class="cls-1" d="M139.93,64.42v-1.92h-3.5v-.9l3.39-4.64h1.06v4.68h.96l-.11.85h-.86v1.92h-.95ZM139.93,59.76c0-.58,0-1.31.03-1.8-.3.58-1.76,2.56-2.55,3.68h2.53v-1.88Z"/>
    <path class="cls-1" d="M148.01,60.64c0,1.85-.53,3.92-2.61,3.92s-2.6-1.94-2.6-3.87.61-3.87,2.64-3.87,2.58,1.9,2.58,3.81ZM143.85,60.69c0,1.42.25,3.02,1.56,3.02s1.55-1.52,1.55-3.07c0-1.44-.25-2.97-1.52-2.97s-1.59,1.38-1.59,3.02Z"/>
    <path class="cls-1" d="M152.63,58.67c.93,2.75,1.44,4.28,1.59,4.86h.01c.19-.65.6-1.97,1.53-4.86h1l-2.07,6.01c-.58,1.68-1.02,2.11-2.19,2.11-.18,0-.4-.01-.62-.04v-.86c.15.02.31.03.47.03.73,0,1-.32,1.34-1.28l-2.15-5.97h1.07Z"/>
    <path class="cls-1" d="M158.35,61.73c0,1.17.6,2,1.57,2,.91,0,1.2-.47,1.39-.89h1c-.23.74-.84,1.72-2.42,1.72-1.81,0-2.54-1.47-2.54-2.95,0-1.71.86-3.07,2.61-3.07,1.85,0,2.46,1.49,2.46,2.71,0,.17,0,.32-.02.48h-4.05ZM161.41,61.03c-.01-.95-.49-1.71-1.47-1.71s-1.46.7-1.56,1.71h3.03Z"/>
    <path class="cls-1" d="M167.97,63.17c0,.52.05,1.09.08,1.25h-.95c-.05-.13-.08-.4-.09-.75-.2.38-.66.89-1.77.89-1.36,0-1.93-.88-1.93-1.76,0-1.28,1.01-1.87,2.72-1.87h.98v-.49c0-.51-.16-1.13-1.24-1.13-.96,0-1.12.48-1.23.93h-.96c.08-.79.57-1.71,2.22-1.7,1.4,0,2.18.58,2.18,1.88v2.75ZM167,61.62h-.93c-1.15,0-1.76.32-1.76,1.13,0,.6.41,1.03,1.12,1.03,1.38,0,1.57-.93,1.57-1.98v-.18Z"/>
    <path class="cls-1" d="M169.68,60.23c0-.8,0-1.26-.01-1.56h.97c.02.16.03.61.03,1.17.3-.78.99-1.28,1.94-1.31v.99c-1.18.04-1.94.65-1.94,2.1v2.79h-.99v-4.19Z"/>
    <path class="cls-1" d="M174.19,62.78c.16.63.63,1,1.41,1,.84,0,1.18-.36,1.18-.89s-.26-.79-1.36-1.05c-1.64-.4-1.99-.9-1.99-1.68s.6-1.62,2.07-1.62,2.09.86,2.16,1.66h-.96c-.08-.37-.36-.89-1.25-.89-.81,0-1.04.39-1.04.76,0,.43.24.64,1.29.89,1.74.41,2.09,1,2.09,1.85,0,1.01-.8,1.74-2.23,1.74s-2.22-.75-2.36-1.78h.99Z"/>
    <path class="cls-1" d="M186.87,61.54c0,1.66-.95,3.02-2.71,3.02-1.65,0-2.64-1.27-2.64-3s.98-3.02,2.71-3.02c1.6,0,2.64,1.19,2.64,3ZM182.55,61.55c0,1.26.63,2.18,1.66,2.18s1.64-.87,1.64-2.18-.59-2.18-1.67-2.18-1.64.87-1.64,2.18Z"/>
    <path class="cls-1" d="M188.4,64.42v-4.94h-.93v-.81h.93v-.69c0-1.06.4-2,1.67-2,.21,0,.5.03.64.08v.84c-.14-.03-.35-.05-.5-.05-.59,0-.81.36-.81,1.2v.63h1.15v.81h-1.15v4.94h-.99Z"/>
    <path class="cls-1" d="M199.31,60.73h-3.92v2.79h4.31l-.13.9h-5.2v-7.89h5.14v.9h-4.11v2.41h3.92v.9Z"/>
    <path class="cls-1" d="M202.16,60.95v3.47h-1.04v-7.89h3.08c1.62,0,2.48.88,2.48,2.11,0,1.02-.59,1.65-1.34,1.86.64.17,1.2.65,1.2,2.02v.34c0,.54-.03,1.23.11,1.56h-1.02c-.14-.34-.13-.95-.13-1.7v-.17c0-1.12-.32-1.61-1.73-1.61h-1.61ZM202.16,60.07h1.72c1.21,0,1.74-.45,1.74-1.34,0-.84-.55-1.31-1.62-1.31h-1.83v2.65Z"/>
    <path class="cls-1" d="M208.45,56.53h2.99c1.54,0,2.59.86,2.59,2.29,0,1.54-1.11,2.35-2.65,2.35h-1.88v3.24h-1.05v-7.89ZM209.51,60.3h1.83c1.08,0,1.62-.53,1.62-1.44s-.65-1.44-1.58-1.44h-1.87v2.89Z"/>
  </g>
</svg>