<?xml version="1.0" encoding="UTF-8"?>
<svg xmlns="http://www.w3.org/2000/svg" xmlns:xlink="http://www.w3.org/1999/xlink" viewBox="0 0 209.87 170.04">
  <defs>
    <style>
      .cls-1 {
        fill: #fff;
      }

      .cls-2 {
        fill: none;
      }

      .cls-3 {
        fill: #f4b942;
      }

      .cls-4 {
        isolation: isolate;
      }

      .cls-5 {
        mix-blend-mode: overlay;
        opacity: .14;
      }

      .cls-6 {
        clip-path: url(#clippath);
      }
    </style>
    <clipPath id="clippath">
      <rect class="cls-2" x="11.51" y="11.72" width="186.85" height="146.6" rx="18.21" ry="18.21"/>
    </clipPath>
  </defs>
  <g class="cls-4">
    <g id="Layer_1" data-name="Layer 1">
      <g>
        <g class="cls-6">
          <image class="cls-5" width="4200" height="2800" transform="translate(-33.95 -8.41) scale(.07)" xlink:href="../close-up-pen-table.jpg"/>
        </g>
        <g>
          <path class="cls-1" d="M91.69,46.08h-7.2c-.38,0-.72-.25-.83-.61-.11-.36.03-.76.34-.97l7.2-4.91c.27-.18.61-.2.89-.05.28.15.46.44.46.77v4.91c0,.48-.39.87-.87.87ZM87.29,44.35h3.53v-2.41l-3.53,2.41Z"/>
          <path class="cls-1" d="M111.34,50.2h-21.55c-.48,0-.87-.39-.87-.87s.39-.87.87-.87h21.55c.48,0,.87.39.87.87s-.39.87-.87.87Z"/>
          <path class="cls-1" d="M111.34,53.25h-21.55c-.48,0-.87-.39-.87-.87s.39-.87.87-.87h21.55c.48,0,.87.39.87.87s-.39.87-.87.87Z"/>
          <path class="cls-1" d="M111.34,56.31h-21.55c-.48,0-.87-.39-.87-.87s.39-.87.87-.87h21.55c.48,0,.87.39.87.87s-.39.87-.87.87Z"/>
          <path class="cls-1" d="M107.35,59.36h-17.56c-.48,0-.87-.39-.87-.87s.39-.87.87-.87h17.56c.48,0,.87.39.87.87s-.39.87-.87.87Z"/>
          <path class="cls-1" d="M95.79,62.41h-6c-.48,0-.87-.39-.87-.87s.39-.87.87-.87h6c.48,0,.87.39.87.87s-.39.87-.87.87Z"/>
          <path class="cls-1" d="M96.86,65.46h-7.08c-.48,0-.87-.39-.87-.87s.39-.87.87-.87h7.08c.48,0,.87.39.87.87s-.39.87-.87.87Z"/>
          <path class="cls-1" d="M99.92,68.51h-10.13c-.48,0-.87-.39-.87-.87s.39-.87.87-.87h10.13c.48,0,.87.39.87.87s-.39.87-.87.87Z"/>
          <path class="cls-1" d="M102.97,71.57h-13.18c-.48,0-.87-.39-.87-.87s.39-.87.87-.87h13.18c.48,0,.87.39.87.87s-.39.87-.87.87Z"/>
          <path class="cls-1" d="M104.69,74.62h-14.9c-.48,0-.87-.39-.87-.87s.39-.87.87-.87h14.9c.48,0,.87.39.87.87s-.39.87-.87.87Z"/>
          <path class="cls-1" d="M104.01,77.67h-14.23c-.48,0-.87-.39-.87-.87s.39-.87.87-.87h14.23c.48,0,.87.39.87.87s-.39.87-.87.87Z"/>
          <path class="cls-1" d="M107.87,80.72h-18.08c-.48,0-.87-.39-.87-.87s.39-.87.87-.87h18.08c.48,0,.87.39.87.87s-.39.87-.87.87Z"/>
          <path class="cls-3" d="M129.57,77.04c0,.23-.08.46-.24.62l-8.98,8.98c-.35.34-.92.32-1.29-.04l-1.21-1.21,10.23-10.23,1.21,1.21c.18.18.28.41.28.66Z"/>
          <path class="cls-1" d="M108.1,62.3c-.06.13-.09.27-.09.43s.03.3.09.43c-.05-.13-.08-.28-.08-.43s.03-.3.08-.43ZM127.2,74.81l-.75-.75c-.9-.91-1.64-2.05-1.97-3.06-.74-2.22-2.19-4.52-4.33-6.87-.37-.41-.77-.83-1.18-1.25l-.55-.55-1.58-1.58-1.03-1.03c-.21-.21-.44-.38-.7-.51h0c-.12-.07-.24-.12-.37-.16-.09-.03-.17-.06-.26-.08-.11-.02-.22-.04-.33-.06-.12-.02-.24-.03-.36-.03-.17,0-.33.03-.5.06,0,0,0,0,0,0-.12.02-.24.05-.36.09-.16.05-.32.11-.47.19,0,0,0,0,0,0-.16.09-.32.19-.47.31-.07.06-.15.13-.21.19-.27.27-.49.61-.63.95-.53-.52-1.25-.8-1.99-.8s-1.48.3-2.02.83c-.53.53-.83,1.25-.84,2-.72,0-1.44.28-1.99.83-.29.29-.5.62-.64.98l-4-4c-.54-.53-1.26-.83-2.02-.83s-1.48.3-2.02.83c-.05.05-.1.11-.15.16-.43.49-.66,1.11-.68,1.73-.03.45.06.91.26,1.33.13.3.32.58.57.82l5.27,5.27,1.74,1.74,1.52,1.52-.36.35c-.34.34-.59.74-.74,1.18-.12.33-.19.69-.19,1.06,0,.09,0,.17.02.26.05.64.29,1.24.7,1.73.06.09.14.16.22.24l.65.65c.15.15.31.3.47.44.83.72,1.79,1.29,2.79,1.73,1.89.84,3.98,1.27,5.78,1.55,1.17.19,2.26.75,3.14,1.63l.75.75c.17.17.39.25.61.25s.44-.08.61-.25l8.63-8.63c.34-.34.34-.89,0-1.22ZM117.82,82.69c-1.14-1.15-2.56-1.88-4.08-2.13-1.75-.28-3.77-.7-5.53-1.5-.95-.44-1.84-1-2.56-1.72l-.66-.65c-.07-.07-.13-.15-.19-.23-.15-.23-.23-.5-.23-.78,0-.38.15-.74.42-1.01l.27-.27.07-.07.63-.63c.16-.16.25-.38.25-.61s-.09-.45-.25-.61l-2.35-2.34-3.06-3.06-.06-.07-2.98-2.98-.69-.69c-.44-.44-.44-1.16,0-1.59.43-.43,1.17-.43,1.59,0l5.85,5.85s.09.08.14.11c0,0,0,0,.02,0,.33.21.79.15,1.08-.14.34-.34.34-.89,0-1.22-.44-.44-.44-1.16,0-1.59s1.16-.44,1.59,0c.04.04.09.07.14.11.2.13.47.17.7.11.31-.07.54-.31.62-.61.09-.3,0-.62-.23-.84-.11-.11-.19-.23-.24-.37-.05-.13-.08-.28-.08-.43s.03-.3.08-.43c.06-.14.14-.26.24-.36.43-.43,1.17-.43,1.59,0l1.83,1.83c.34.34.89.34,1.23,0,.25-.25.32-.63.19-.94-.04-.11-.11-.2-.19-.29t-.02-.02s-.09-.1-.12-.15c-.12-.19-.19-.4-.19-.62,0-.3.11-.58.33-.8.42-.42,1.16-.42,1.59,0l.75.75s.02.02.02.03.02.02.02.02l2.37,2.38c.32.32.61.63.91.94l.02.02c2.07,2.25,3.46,4.42,4.15,6.47.43,1.27,1.3,2.63,2.4,3.73l.14.14-7.4,7.41-.15-.14Z"/>
          <path class="cls-1" d="M109.81,67.09c-.22,0-.44-.08-.61-.25l-2.09-2.09c-.34-.34-.34-.89,0-1.23.34-.34.89-.34,1.22,0l2.09,2.09c.34.34.34.89,0,1.23-.17.17-.39.25-.61.25Z"/>
          <path class="cls-1" d="M106.98,69.92c-.22,0-.44-.08-.61-.25l-2.09-2.09c-.34-.34-.34-.89,0-1.22.34-.34.89-.34,1.23,0l2.09,2.09c.34.34.34.89,0,1.23-.17.17-.39.25-.61.25Z"/>
          <path class="cls-1" d="M112.63,64.28c-.22,0-.44-.08-.61-.25l-.26-.26c-.34-.34-.34-.89,0-1.23.34-.34.89-.34,1.23,0l.26.26c.34.34.34.89,0,1.22-.17.17-.39.25-.61.25Z"/>
          <path class="cls-1" d="M113.4,87.68h-28.91c-.48,0-.87-.39-.87-.87v-41.6c0-.29.14-.55.38-.72l7.2-4.91c.14-.1.31-.15.49-.15h24.28c.48,0,.87.39.87.87v20.81c0,.35-.21.67-.53.8-.32.13-.7.06-.94-.19l-.78-.78c-.43-.43-1.17-.43-1.59,0-.21.21-.33.5-.33.8s.12.58.33.8c.34.34.34.89,0,1.23-.34.34-.89.34-1.23,0l-1.83-1.83c-.43-.43-1.17-.43-1.59,0-.21.21-.33.5-.33.8s.12.58.33.8c.22.22.31.55.23.85-.08.3-.32.54-.62.61-.3.07-.63,0-.84-.22-.44-.44-1.15-.44-1.59,0-.44.44-.44,1.15,0,1.59.34.34.34.89,0,1.22-.34.34-.9.35-1.24.01l-5.85-5.85c-.43-.43-1.17-.43-1.59,0-.44.44-.44,1.15,0,1.59l9.14,9.14c.16.16.25.38.25.61s-.09.45-.25.61l-.97.97c-.27.27-.42.63-.42,1.01s.15.74.42,1.01l.65.65c2.04,2.04,5.4,2.8,8.09,3.23.47.08.79.52.72.99-.08.47-.53.79-.99.72-2.95-.47-6.65-1.32-9.04-3.72l-.65-.65c-.6-.6-.93-1.39-.93-2.23s.33-1.64.93-2.23l.35-.35-8.53-8.53c-1.11-1.11-1.11-2.93,0-4.04.54-.54,1.26-.84,2.02-.84.76,0,1.48.3,2.02.84l4,4c.14-.36.35-.69.64-.98.55-.55,1.27-.83,1.99-.84,0-.75.3-1.46.84-1.99.54-.54,1.26-.84,2.02-.84s1.45.29,1.99.81c.14-.35.36-.68.63-.96.87-.87,2.28-1.07,3.34-.51v-18.04h-23.15l-6.6,4.5v40.28h28.05c.48,0,.87.39.87.87s-.39.87-.87.87Z"/>
          <path class="cls-1" d="M119.29,65.34c-.24,0-.47-.1-.64-.28-.28-.31-.58-.62-.9-.94l-2.39-2.39c-.16-.16-.25-.38-.25-.61v-17.2c0-.48.39-.87.87-.87h3.32c.48,0,.87.39.87.87v20.56c0,.36-.22.68-.55.81-.1.04-.21.06-.32.06ZM116.84,60.75s1.59,1.59,1.59,1.59v-17.56h-1.59v15.97Z"/>
          <path class="cls-1" d="M119.29,91.3h-31.48c-.48,0-.87-.39-.87-.87v-3.61c0-.48.39-.87.87-.87h25.41c.48,0,.87.39.87.87s-.39.87-.87.87h-24.54v1.88h30.62c.48,0,.87.39.87.87s-.39.87-.87.87Z"/>
          <path class="cls-3" d="M130.52,75.14l-1.83-1.82c-.16-.16-.38-.26-.61-.26s-.44.1-.61.26l-.87.88-8.63,8.62-1.22,1.23-.74.73c-.16.16-.26.38-.26.61s.1.45.26.61l1.82,1.83c.53.53,1.22.78,1.91.78s1.33-.25,1.83-.75l8.98-8.98c.5-.49.77-1.16.76-1.87-.02-.7-.29-1.37-.79-1.87ZM129.33,77.66l-8.98,8.98c-.35.34-.92.32-1.29-.04l-1.21-1.21,10.23-10.23,1.21,1.21c.18.18.28.41.28.66,0,.23-.08.46-.24.62Z"/>
        </g>
      </g>
    </g>
  </g>
</svg>