<?xml version="1.0" encoding="UTF-8"?>
<svg xmlns="http://www.w3.org/2000/svg" xmlns:xlink="http://www.w3.org/1999/xlink" viewBox="0 0 209.87 170.04">
  <defs>
    <style>
      .cls-1 {
        fill: #fff;
      }

      .cls-2 {
        fill: none;
      }

      .cls-3 {
        fill: #f4b942;
      }

      .cls-4 {
        isolation: isolate;
      }

      .cls-5 {
        mix-blend-mode: overlay;
        opacity: .2;
      }

      .cls-6 {
        clip-path: url(#clippath);
      }
    </style>
    <clipPath id="clippath">
      <rect class="cls-2" x="11.51" y="11.72" width="186.85" height="146.6" rx="18.21" ry="18.21"/>
    </clipPath>
  </defs>
  <g class="cls-4">
    <g id="Layer_1" data-name="Layer 1">
      <g>
        <g class="cls-6">
          <image class="cls-5" width="5930" height="3959" transform="translate(3.86 1.33) scale(.04)" xlink:href="../accountant-calculating-profit-with-financial-analysis-graphs.jpg"/>
        </g>
        <g>
          <path class="cls-1" d="M112.82,89.96h-22.6c-2.91,0-5.29-2.37-5.29-5.29v-26.09c0-2.92,2.37-5.29,5.29-5.29h17.68c.42,0,.76.34.76.76s-.34.76-.76.76h-17.68c-2.07,0-3.76,1.69-3.76,3.76v26.09c0,2.07,1.69,3.76,3.76,3.76h22.6c.42,0,.76.34.76.76s-.34.76-.76.76Z"/>
          <path class="cls-1" d="M107.9,62.74h-22.2c-.42,0-.76-.34-.76-.76s.34-.76.76-.76h22.2c.42,0,.76.34.76.76s-.34.76-.76.76Z"/>
          <path class="cls-1" d="M94.72,58.28c-.42,0-.76-.34-.76-.76v-6.77c0-.42.34-.76.76-.76s.76.34.76.76v6.77c0,.42-.34.76-.76.76Z"/>
          <path class="cls-1" d="M103.42,58.28c-.42,0-.76-.34-.76-.76v-6.77c0-.42.34-.76.76-.76s.76.34.76.76v6.77c0,.42-.34.76-.76.76Z"/>
          <path class="cls-1" d="M95.93,60.48h-2.43c-.98,0-1.78-.8-1.78-1.78v-.17c0-.98.8-1.78,1.78-1.78h2.43c.98,0,1.78.8,1.78,1.78v.17c0,.98-.8,1.78-1.78,1.78ZM93.5,58.28c-.14,0-.25.11-.25.25v.17c0,.14.11.25.25.25h2.43c.14,0,.25-.11.25-.25v-.17c0-.14-.11-.25-.25-.25h-2.43Z"/>
          <path class="cls-1" d="M104.64,60.48h-2.43c-.98,0-1.78-.8-1.78-1.78v-.17c0-.98.8-1.78,1.78-1.78h2.43c.98,0,1.78.8,1.78,1.78v.17c0,.98-.8,1.78-1.78,1.78ZM102.21,58.28c-.14,0-.25.11-.25.25v.17c0,.14.11.25.25.25h2.43c.14,0,.25-.11.25-.25v-.17c0-.14-.11-.25-.25-.25h-2.43Z"/>
          <path class="cls-1" d="M91.35,70.45c-1.79,0-3.24-1.46-3.24-3.24s1.46-3.24,3.24-3.24,3.24,1.46,3.24,3.24-1.46,3.24-3.24,3.24ZM91.35,65.49c-.95,0-1.72.77-1.72,1.72s.77,1.72,1.72,1.72,1.72-.77,1.72-1.72-.77-1.72-1.72-1.72Z"/>
          <path class="cls-1" d="M99.44,70.45c-1.79,0-3.24-1.46-3.24-3.24s1.46-3.24,3.24-3.24,3.24,1.46,3.24,3.24-1.46,3.24-3.24,3.24ZM99.44,65.49c-.95,0-1.72.77-1.72,1.72s.77,1.72,1.72,1.72,1.72-.77,1.72-1.72-.77-1.72-1.72-1.72Z"/>
          <path class="cls-1" d="M107.53,70.45c-1.79,0-3.24-1.46-3.24-3.24s1.46-3.24,3.24-3.24,3.24,1.46,3.24,3.24-1.46,3.24-3.24,3.24ZM107.53,65.49c-.95,0-1.72.77-1.72,1.72s.77,1.72,1.72,1.72,1.72-.77,1.72-1.72-.77-1.72-1.72-1.72Z"/>
          <path class="cls-1" d="M91.35,78.12c-1.79,0-3.24-1.46-3.24-3.24s1.46-3.24,3.24-3.24,3.24,1.46,3.24,3.24-1.46,3.24-3.24,3.24ZM91.35,73.16c-.95,0-1.72.77-1.72,1.72s.77,1.72,1.72,1.72,1.72-.77,1.72-1.72-.77-1.72-1.72-1.72Z"/>
          <path class="cls-1" d="M99.44,78.12c-1.79,0-3.24-1.46-3.24-3.24s1.46-3.24,3.24-3.24,3.24,1.46,3.24,3.24-1.46,3.24-3.24,3.24ZM99.44,73.16c-.95,0-1.72.77-1.72,1.72s.77,1.72,1.72,1.72,1.72-.77,1.72-1.72-.77-1.72-1.72-1.72Z"/>
          <path class="cls-1" d="M107.53,78.12c-1.79,0-3.24-1.46-3.24-3.24s1.46-3.24,3.24-3.24,3.24,1.46,3.24,3.24-1.46,3.24-3.24,3.24ZM107.53,73.16c-.95,0-1.72.77-1.72,1.72s.77,1.72,1.72,1.72,1.72-.77,1.72-1.72-.77-1.72-1.72-1.72Z"/>
          <path class="cls-1" d="M107.42,85.79c-1.79,0-3.24-1.46-3.24-3.24s1.46-3.24,3.24-3.24,3.24,1.46,3.24,3.24-1.46,3.24-3.24,3.24ZM107.42,80.83c-.95,0-1.72.77-1.72,1.72s.77,1.72,1.72,1.72,1.72-.77,1.72-1.72-.77-1.72-1.72-1.72Z"/>
          <path class="cls-1" d="M91.35,85.79c-1.79,0-3.24-1.46-3.24-3.24s1.46-3.24,3.24-3.24,3.24,1.46,3.24,3.24-1.46,3.24-3.24,3.24ZM91.35,80.83c-.95,0-1.72.77-1.72,1.72s.77,1.72,1.72,1.72,1.72-.77,1.72-1.72-.77-1.72-1.72-1.72Z"/>
          <path class="cls-1" d="M99.44,85.79c-1.79,0-3.24-1.46-3.24-3.24s1.46-3.24,3.24-3.24,3.24,1.46,3.24,3.24-1.46,3.24-3.24,3.24ZM99.44,80.83c-.95,0-1.72.77-1.72,1.72s.77,1.72,1.72,1.72,1.72-.77,1.72-1.72-.77-1.72-1.72-1.72Z"/>
          <path class="cls-3" d="M124.72,88.53c-1.05,0-1.9-.81-1.99-1.83-2.04-.77-3.43-2.68-3.43-4.82,0-1.1.9-2,2-2s2,.9,2,2c0,.66.64,1.19,1.42,1.19s1.42-.54,1.42-1.19-.64-1.2-1.42-1.2c-2.99,0-5.42-2.33-5.42-5.19,0-.73.16-1.44.47-2.1.18-.38.63-.55,1.01-.37.38.18.55.63.37,1.01-.21.46-.32.95-.32,1.46,0,2.02,1.74,3.66,3.89,3.66,1.63,0,2.95,1.22,2.95,2.72s-1.32,2.72-2.95,2.72-2.95-1.22-2.95-2.72c0-.26-.21-.47-.47-.47s-.47.21-.47.47c0,1.63,1.17,3.08,2.85,3.52.34.09.57.39.57.74v.39c0,.26.21.47.47.47s.47-.21.47-.47v-.39c0-.35.23-.65.57-.74,1.68-.44,2.85-1.89,2.85-3.52,0-2.02-1.74-3.66-3.89-3.66-1.63,0-2.95-1.22-2.95-2.72s1.32-2.72,2.95-2.72,2.95,1.22,2.95,2.72c0,.26.21.47.47.47s.47-.21.47-.47c0-1.63-1.17-3.08-2.85-3.52-.34-.09-.57-.39-.57-.74v-.22c0-.26-.21-.47-.47-.47s-.47.21-.47.47v.22c0,.35-.23.65-.57.74-.4.11-.79.27-1.13.49-.35.23-.83.12-1.05-.23-.23-.36-.12-.83.23-1.05.32-.21.67-.38,1.03-.51.16-.94.98-1.65,1.97-1.65s1.8.71,1.97,1.65c2.06.77,3.45,2.68,3.45,4.83,0,1.1-.9,2-2,2s-2-.9-2-2c0-.66-.64-1.19-1.42-1.19s-1.42.54-1.42,1.19.64,1.2,1.42,1.2c2.99,0,5.42,2.33,5.42,5.19,0,2.14-1.38,4.04-3.43,4.82-.08,1.02-.94,1.83-1.99,1.83Z"/>
          <path class="cls-3" d="M117.32,70.91c-1.24,0-2.24-.98-2.28-2.21-2.52-.9-4.23-3.22-4.23-5.83,0-1.26,1.03-2.29,2.29-2.29s2.29,1.03,2.29,2.29c0,.91.87,1.66,1.94,1.66s1.94-.74,1.94-1.66-.87-1.66-1.94-1.66c-3.59,0-6.51-2.79-6.51-6.23,0-2.61,1.72-4.93,4.24-5.83.15-1.12,1.11-1.99,2.27-1.99s2.12.87,2.27,1.99c2.53.9,4.24,3.22,4.24,5.83,0,1.26-1.03,2.29-2.29,2.29s-2.29-1.03-2.29-2.29c0-.91-.87-1.66-1.94-1.66s-1.94.74-1.94,1.66.87,1.66,1.94,1.66c3.59,0,6.51,2.79,6.51,6.23,0,2.6-1.71,4.92-4.23,5.83-.04,1.23-1.05,2.21-2.28,2.21ZM113.09,62.11c-.42,0-.76.34-.76.76,0,2.1,1.5,3.96,3.66,4.53.34.09.57.39.57.74v.49c0,.42.34.76.76.76s.76-.34.76-.76v-.49c0-.35.23-.65.57-.74,2.15-.56,3.66-2.42,3.66-4.53,0-2.59-2.24-4.7-4.98-4.7-1.91,0-3.47-1.43-3.47-3.18s1.55-3.18,3.47-3.18,3.47,1.43,3.47,3.18c0,.42.34.76.76.76s.76-.34.76-.76c0-2.1-1.5-3.96-3.66-4.53-.34-.09-.57-.39-.57-.74v-.27c0-.42-.34-.76-.76-.76s-.76.34-.76.76v.27c0,.35-.23.65-.57.74-2.15.56-3.66,2.42-3.66,4.53,0,2.59,2.24,4.7,4.99,4.7,1.91,0,3.47,1.43,3.47,3.18s-1.55,3.18-3.47,3.18-3.47-1.43-3.47-3.18c0-.42-.34-.76-.76-.76Z"/>
        </g>
      </g>
    </g>
  </g>
</svg>