<?xml version="1.0" encoding="UTF-8"?>
<svg xmlns="http://www.w3.org/2000/svg" xmlns:xlink="http://www.w3.org/1999/xlink" viewBox="0 0 209.87 170.04">
  <defs>
    <style>
      .cls-1 {
        fill: #fff;
      }

      .cls-2 {
        fill: none;
      }

      .cls-3 {
        fill: #f4b942;
      }

      .cls-4 {
        isolation: isolate;
      }

      .cls-5 {
        mix-blend-mode: overlay;
        opacity: .23;
      }

      .cls-6 {
        clip-path: url(#clippath);
      }
    </style>
    <clipPath id="clippath">
      <rect class="cls-2" x="11.51" y="11.72" width="186.85" height="146.6" rx="18.21" ry="18.21"/>
    </clipPath>
  </defs>
  <g class="cls-4">
    <g id="Layer_1" data-name="Layer 1">
      <g>
        <g class="cls-6">
          <image class="cls-5" width="1920" height="1080" transform="translate(-11.5 8.03) scale(.14)" xlink:href="../pos-credit-card-settlement-instead-cash-settlement-shopping.jpg"/>
        </g>
        <g>
          <path class="cls-1" d="M88.62,72.01c.03.5-.34.92-.83.94-.02,0-.03,0-.06,0-.46,0-.86-.37-.88-.84-.03-.48-.12-.92-.24-1.3-.02-.04-.03-.08-.05-.13-.98-2.63-4.03-3.06-4.19-3.09-.45-.06-.77-.44-.77-.88v-10.19c0-.49.4-.89.89-.89s.89.4.89.89v9.46c1.57.41,3.67,1.5,4.67,3.69.28.57.47,1.23.54,1.96.03.12.03.24.04.37Z"/>
          <path class="cls-1" d="M99.12,45.58v3.08c0,.5-.39.89-.88.89-.04,0-.09,0-.13,0h0c-.43-.07-.76-.43-.76-.88v-3.08c0-.92-.61-1.71-1.41-1.85-.53-.09-1.04.04-1.44.38-.39.33-.62.82-.62,1.33,0,.14-.03.27-.09.39-.14.29-.45.5-.8.5-.43,0-.8-.32-.87-.73,0-.05-.02-.1-.02-.16v-2.36c0-.91-.61-1.71-1.41-1.84-.53-.1-1.03.03-1.44.37-.39.34-.62.82-.62,1.34v2.5c0,.14-.03.29-.1.4-.14.29-.45.49-.79.49-.19,0-.35-.06-.5-.15-.24-.16-.39-.44-.39-.74,0-.51-.23-1-.62-1.33-.4-.34-.92-.47-1.44-.38-.81.14-1.41.93-1.41,1.85v4.51c0,.18-.06.35-.15.5l-.03.03c-.05.05-.11.11-.15.17-.15.13-.35.2-.56.2-.5,0-.89-.4-.89-.89v-4.51c0-1.77,1.24-3.31,2.88-3.6.84-.15,1.69,0,2.4.42.13-.84.55-1.61,1.22-2.16.8-.66,1.85-.95,2.89-.77,1.46.26,2.57,1.45,2.82,2.93.72-.42,1.58-.58,2.43-.43,1.66.29,2.87,1.81,2.87,3.6Z"/>
          <path class="cls-1" d="M101.24,94.46h-18.75c-.49,0-.89-.4-.89-.89v-4.36c0-.49.4-.89.89-.89s.89.4.89.89v3.47h16.97v-11.43c0-2.73.41-5.43,1.22-8.03l1.03-3.33v-18.82c0-.91-.61-1.71-1.41-1.85-.61-.11-1.2.1-1.61.54-.33.36-.89.39-1.26.06-.36-.33-.39-.89-.06-1.26.82-.9,2.02-1.31,3.23-1.09,1.67.29,2.88,1.81,2.88,3.6v18.96c0,.09-.01.18-.04.26l-1.07,3.46c-.75,2.43-1.14,4.96-1.14,7.51v12.32c0,.49-.4.89-.89.89Z"/>
          <path class="cls-1" d="M83.13,76.68c.15.16.24.38.24.61v7.02c0,.5-.4.89-.89.89s-.89-.4-.89-.89v-6.67l-4.36-4.68c-1.54-1.66-2.39-3.82-2.39-6.08v-10.16c0-2.29,1.71-4.24,3.88-4.42.33-.03.66-.03.97.03.6.08,1.18.29,1.69.62.21.13.41.29.6.45.88.81,1.39,1.95,1.39,3.14,0,.49-.4.89-.89.89s-.89-.4-.89-.89c0-.7-.29-1.36-.81-1.83-.24-.22-.52-.39-.82-.5-.06-.02-.13-.03-.18-.06-.29-.08-.59-.11-.9-.08-1.27.11-2.26,1.28-2.26,2.66v10.16c0,1.82.67,3.54,1.91,4.87l4.6,4.94Z"/>
          <path class="cls-1" d="M92.18,50.89v1.3c0,.49-.4.89-.88.89s-.89-.4-.89-.89v-1.3c0-.5.4-.89.89-.89s.88.4.88.89Z"/>
          <path class="cls-1" d="M104.38,58.73c0,2.4-.65,4.66-1.77,6.6-2.29,3.93-6.54,6.57-11.4,6.57-.88,0-1.77-.08-2.62-.26-.49-.1-.98-.23-1.45-.38-.24-.08-.42-.24-.52-.45-.02-.04-.03-.08-.05-.13-.06-.18-.06-.37,0-.55.15-.46.66-.72,1.12-.57.13.04.24.08.37.12,1.03.29,2.08.45,3.16.45,6.29,0,11.4-5.11,11.4-11.4s-5.11-11.39-11.4-11.39c-3.05,0-5.89,1.19-7.98,3.24l-.03.03c-.05.05-.11.11-.15.17-.63.64-1.19,1.37-1.66,2.16-.15.25-.29.51-.42.78-.19.38-.61.56-1,.48-.06-.02-.13-.03-.18-.06h0c-.44-.23-.62-.76-.4-1.2.1-.21.21-.42.33-.62.53-.95,1.16-1.82,1.89-2.59.54-.59,1.13-1.13,1.78-1.6,1.05-.78,2.22-1.4,3.47-1.82.13-.05.25-.09.39-.13.42-.14.85-.25,1.29-.34.03-.02.07-.02.1-.02.84-.18,1.7-.26,2.58-.26.3,0,.61,0,.91.03.57.03,1.13.11,1.67.23,1.26.24,2.46.68,3.56,1.26.53.29,1.04.6,1.53.96.08.05.17.11.24.18.44.32.86.67,1.24,1.06.87.84,1.62,1.8,2.24,2.86,1.13,1.93,1.77,4.19,1.77,6.59Z"/>
          <path class="cls-1" d="M95.64,61.87c0,1.98-1.49,3.64-3.46,4.03-.29.05-.58.08-.88.08s-.61-.03-.89-.08c-1.97-.39-3.45-2.05-3.45-4.03,0-.5.4-.89.89-.89s.88.4.88.89c0,1.29,1.15,2.33,2.57,2.33s2.56-1.04,2.56-2.33-1.15-2.34-2.56-2.34c-2.4,0-4.35-1.85-4.35-4.11,0-1.98,1.49-3.64,3.45-4.03.29-.05.59-.08.89-.08s.6.03.88.08c1.98.39,3.46,2.05,3.46,4.03,0,.49-.4.88-.89.88s-.89-.4-.89-.88c0-1.29-1.15-2.34-2.56-2.34s-2.57,1.04-2.57,2.34,1.15,2.33,2.57,2.33c2.4,0,4.35,1.85,4.35,4.12Z"/>
          <path class="cls-3" d="M91.2,47.33c-3.05,0-5.89,1.19-7.98,3.24l-.03.03c-.04.06-.09.12-.15.17-.63.64-1.19,1.37-1.66,2.16.21.13.41.29.6.45.88.81,1.39,1.95,1.39,3.14v9.46c1.57.41,3.67,1.5,4.67,3.69,1.03.29,2.08.45,3.16.45,6.29,0,11.4-5.11,11.4-11.4s-5.11-11.39-11.4-11.39ZM91.3,57.75c2.4,0,4.35,1.85,4.35,4.12,0,1.98-1.49,3.64-3.46,4.03v.67c0,.49-.4.89-.88.89s-.89-.4-.89-.89v-.67c-1.97-.39-3.45-2.05-3.45-4.03,0-.5.4-.89.89-.89s.88.4.88.89c0,1.29,1.15,2.33,2.57,2.33s2.56-1.04,2.56-2.33-1.15-2.34-2.56-2.34c-2.4,0-4.35-1.85-4.35-4.11,0-1.98,1.49-3.64,3.45-4.03v-.5c0-.5.4-.89.89-.89s.88.4.88.89v.5c1.98.39,3.46,2.05,3.46,4.03,0,.49-.4.88-.89.88s-.89-.4-.89-.88c0-1.29-1.15-2.34-2.56-2.34s-2.57,1.04-2.57,2.34,1.15,2.33,2.57,2.33Z"/>
          <path class="cls-1" d="M92.18,65.09v1.48c0,.49-.4.89-.88.89s-.89-.4-.89-.89v-1.48c0-.49.4-.89.89-.89s.88.4.88.89Z"/>
          <path class="cls-1" d="M87.74,47.8c-.49,0-.89-.4-.89-.89v-1.48c0-.49.4-.89.89-.89s.89.4.89.89v1.48c0,.49-.4.89-.89.89Z"/>
          <path class="cls-1" d="M112.93,76.23c.03.49-.34.91-.83.94h-.06c-.46,0-.86-.37-.88-.84-.03-.36-.09-.69-.18-.98l-.05-.13c-.77-1.99-3.1-2.34-3.22-2.35-.45-.07-.77-.45-.77-.88v-8.2c0-.49.39-.89.89-.89s.89.4.89.89v7.47c1.26.36,2.89,1.24,3.72,2.95.26.55.45,1.19.5,1.93,0,.03,0,.06,0,.08Z"/>
          <path class="cls-1" d="M107.82,59.49c-.49,0-.89-.4-.89-.89v-3.62c0-1.53,1.04-2.81,2.46-3.07.64-.11,1.28-.02,1.84.25.15-.62.49-1.19.99-1.61.68-.57,1.59-.81,2.47-.65,1.17.21,2.08,1.11,2.36,2.27.57-.28,1.22-.37,1.86-.26,1.43.25,2.46,1.54,2.46,3.07v2.48c0,.49-.4.89-.89.89s-.89-.4-.89-.89v-2.48c0-.65-.43-1.21-.99-1.31-.37-.06-.73.03-1.02.26-.28.23-.44.57-.44.94,0,.49-.4.89-.89.89s-.89-.4-.89-.89v-1.9c0-.65-.43-1.21-.99-1.31-.37-.06-.73.03-1.02.27-.28.23-.44.57-.44.94v2.01c0,.49-.4.89-.89.89s-.89-.4-.89-.89c0-.36-.16-.7-.44-.94-.28-.24-.64-.33-1.01-.26-.57.1-.99.66-.99,1.31v3.62c0,.49-.4.89-.89.89Z"/>
          <path class="cls-1" d="M124.71,65.13c-.49,0-.89-.4-.89-.89v-6.43c0-.65-.43-1.21-.99-1.31-.43-.07-.84.06-1.13.38-.33.36-.89.39-1.26.06-.36-.33-.39-.89-.06-1.26.7-.77,1.73-1.12,2.76-.93,1.43.25,2.46,1.54,2.46,3.07v6.43c0,.49-.4.89-.89.89Z"/>
          <path class="cls-1" d="M122.9,94.46h-15.08c-.49,0-.89-.4-.89-.89v-12.75l-2.18-2.34c-.33-.36-.31-.92.05-1.26.36-.33.92-.31,1.26.05l2.42,2.6c.15.16.24.38.24.61v12.21h13.3v-9.02c0-2.21.33-4.4.99-6.51l.82-2.65v-8.68c0-.49.4-.89.89-.89s.89.4.89.89v8.82c0,.09-.01.18-.04.26l-.86,2.78c-.6,1.94-.91,3.95-.91,5.98v9.9c0,.49-.4.89-.89.89Z"/>
          <path class="cls-1" d="M125.6,65.55c0,.07,0,.14,0,.21-.03,2.11-.68,4.08-1.77,5.72-1.93,2.92-5.24,4.84-8.99,4.84-.64,0-1.28-.06-1.91-.18-.49-.08-.96-.2-1.43-.35-.24-.08-.41-.24-.52-.45l-.05-.13c-.06-.17-.06-.36,0-.55.15-.47.66-.72,1.13-.57.13.04.25.08.38.11.77.22,1.59.33,2.4.33,4.96,0,8.99-4.03,8.99-8.99,0-3.03-1.51-5.72-3.82-7.36-1.46-1.03-3.25-1.63-5.16-1.63-2.84,0-5.51,1.37-7.3,3.75-.06.08-.18.29-.33.55.92.66,1.5,1.75,1.5,2.93,0,.5-.4.89-.89.89s-.89-.4-.89-.89c0-.77-.49-1.46-1.21-1.72-.24-.08-.44-.27-.53-.5-.09-.24-.08-.5.03-.73.14-.29.63-1.24.89-1.59.26-.34.53-.67.82-.98.55-.58,1.14-1.09,1.78-1.54.76-.53,1.58-.96,2.44-1.29.06-.02.11-.03.17-.05.52-.18,1.06-.33,1.61-.43h0c.62-.11,1.26-.17,1.9-.17.19,0,.36,0,.55.02.6.03,1.19.11,1.76.24.87.18,1.69.48,2.46.87.19.09.37.18.55.29.43.24.83.51,1.22.82.03,0,.04.03.07.05.92.71,1.73,1.58,2.38,2.56.95,1.43,1.56,3.1,1.73,4.9.03.34.05.67.05,1.02Z"/>
          <path class="cls-1" d="M115.79,59.25v1.05c0,.5-.4.89-.88.89s-.89-.4-.89-.89v-1.05c0-.49.4-.88.89-.88s.88.4.88.88Z"/>
          <path class="cls-1" d="M118.57,68.07c0,1.63-1.19,3.01-2.78,3.38-.29.08-.58.11-.88.11s-.61-.03-.89-.11c-1.6-.37-2.78-1.75-2.78-3.38,0-.49.39-.88.89-.88s.89.4.89.88c0,.94.85,1.71,1.89,1.71s1.88-.76,1.88-1.71-.85-1.7-1.88-1.7c-2.03,0-3.67-1.56-3.67-3.48,0-1.63,1.18-3.01,2.78-3.38.29-.08.59-.11.89-.11s.6.03.88.11c1.6.37,2.78,1.75,2.78,3.38,0,.49-.4.88-.89.88s-.89-.4-.89-.88c0-.94-.85-1.71-1.88-1.71s-1.89.76-1.89,1.71.85,1.7,1.89,1.7c2.02,0,3.66,1.56,3.66,3.48Z"/>
          <path class="cls-3" d="M119.99,58.2c-1.46-1.03-3.25-1.63-5.16-1.63-2.84,0-5.51,1.37-7.3,3.75-.06.08-.18.29-.33.55.92.66,1.5,1.75,1.5,2.93v7.47c1.26.36,2.89,1.24,3.72,2.95.77.22,1.59.33,2.4.33,4.96,0,8.99-4.03,8.99-8.99,0-3.03-1.51-5.72-3.82-7.36ZM114.91,64.59c2.02,0,3.66,1.56,3.66,3.48,0,1.63-1.19,3.01-2.78,3.38v.4c0,.5-.4.89-.88.89s-.89-.4-.89-.89v-.4c-1.6-.37-2.78-1.75-2.78-3.38,0-.49.39-.88.89-.88s.89.4.89.88c0,.94.85,1.71,1.89,1.71s1.88-.76,1.88-1.71-.85-1.7-1.88-1.7c-2.03,0-3.67-1.56-3.67-3.48,0-1.63,1.18-3.01,2.78-3.38v-.27c0-.49.4-.88.89-.88s.88.4.88.88v.27c1.6.37,2.78,1.75,2.78,3.38,0,.49-.4.88-.89.88s-.89-.4-.89-.88c0-.94-.85-1.71-1.88-1.71s-1.89.76-1.89,1.71.85,1.7,1.89,1.7Z"/>
          <path class="cls-1" d="M115.79,70.67v1.19c0,.5-.4.89-.88.89s-.89-.4-.89-.89v-1.19c0-.5.4-.89.89-.89s.88.4.88.89Z"/>
          <path class="cls-1" d="M112.04,56.94c-.49,0-.89-.4-.89-.89v-1.19c0-.49.4-.89.89-.89s.89.4.89.89v1.19c0,.49-.4.89-.89.89Z"/>
          <path class="cls-1" d="M124.71,94.46h-48.98c-.49,0-.89-.4-.89-.89s.4-.89.89-.89h48.98c.49,0,.89.4.89.89s-.4.89-.89.89Z"/>
        </g>
      </g>
    </g>
  </g>
</svg>