<?xml version="1.0" encoding="UTF-8"?>
<svg xmlns="http://www.w3.org/2000/svg" xmlns:xlink="http://www.w3.org/1999/xlink" viewBox="0 0 209.87 170.04">
  <defs>
    <style>
      .cls-1 {
        fill: #fff;
      }

      .cls-2 {
        fill: none;
      }

      .cls-3 {
        fill: #f4b942;
      }

      .cls-4 {
        isolation: isolate;
      }

      .cls-5 {
        mix-blend-mode: overlay;
        opacity: .27;
      }

      .cls-6 {
        clip-path: url(#clippath);
      }
    </style>
    <clipPath id="clippath">
      <rect class="cls-2" x="11.51" y="11.72" width="186.85" height="146.6" rx="18.21" ry="18.21"/>
    </clipPath>
  </defs>
  <g class="cls-4">
    <g id="Layer_1" data-name="Layer 1">
      <g>
        <g class="cls-6">
          <image class="cls-5" width="1920" height="1080" transform="translate(-52.64 10.04) scale(.14)" xlink:href="../visa-application-form-wooden-table-visa-processing-registration-flat-lay.jpg"/>
        </g>
        <g>
          <path class="cls-1" d="M117.43,68.89s-.09.02-.13.02c-.05,0-.1,0-.15-.02-.27-.08-.42-.37-.34-.64.02-.06.04-.12.05-.18l-5.86,3.47-1.03.61-1.04.62-.54.32c-.27.16-.55.3-.84.42-.68.28-1.38.45-2.1.51-.35.03-.69.03-1.03,0-.71-.06-1.42-.22-2.09-.5.02.04.05.08.08.11.17.24.11.56-.12.72-.09.06-.19.09-.3.09-.08,0-.15-.02-.22-.05.05.02.09.04.14.06.16.07.32.13.49.19.15.05.29.09.45.14.11.03.22.06.34.08.1.02.2.05.3.06.14.03.29.05.43.07.34.04.68.06,1.03.06s.69-.02,1.03-.06c.14-.02.28-.04.42-.07.11-.02.22-.05.34-.07.11-.02.22-.05.33-.08.14-.04.28-.08.42-.13.17-.06.32-.12.49-.19.05-.02.09-.04.14-.06,0,0,.01,0,.02-.01.27-.11.53-.25.78-.4l8.63-5.11s-.07.04-.11.04ZM122.64,65.39s0,0,0-.01c0-.03-.02-.06-.04-.09-.01-.03-.04-.06-.06-.09-.01-.01-.02-.02-.03-.03-.01-.02-.02-.02-.03-.03-.02-.02-.05-.05-.09-.06-.16-.09-.36-.09-.52,0l-.69.41-1.47.87-1.15.68-.58.35-1.13.67h0s-5.86,3.47-5.86,3.47l-1.03.61-1.04.62-.54.32c-.27.16-.55.3-.84.42-.68.28-1.38.45-2.1.51-.35.03-.69.03-1.03,0-.71-.06-1.42-.22-2.09-.5-.29-.12-.57-.26-.84-.42l-.54-.32-1.05-.62-1.03-.61-5.86-3.46-1.14-.67-1.74-1.02-1.47-.87-.69-.41c-.16-.09-.35-.1-.52,0l-.04.02s-.05.04-.08.07c-.01,0-.02.02-.03.03-.02.03-.05.06-.06.09-.02.03-.03.06-.04.09,0,0,0,.01,0,.01-.01.05-.02.09-.02.14v24.09c0,.28.23.51.52.51h34.42c.28,0,.52-.23.52-.51v-24.09s0-.09-.02-.14ZM121.63,89.1h-33.39v-22.67l2.32,1.37,8.57,5.06,1.84,1.09c.25.15.52.29.78.4,0,0,.01.01.02.01.05.02.09.04.14.06.16.07.32.13.49.19.15.05.29.09.45.14.11.03.22.06.34.08.1.02.2.05.3.06.14.03.29.05.43.07.34.04.68.06,1.03.06s.69-.02,1.03-.06c.14-.02.28-.04.42-.07.11-.02.22-.05.34-.07.11-.02.22-.05.33-.08.14-.04.28-.08.42-.13.17-.06.32-.12.49-.19.05-.02.09-.04.14-.06,0,0,.01,0,.02-.01.27-.11.53-.25.78-.4l8.63-5.11s.05-.02.06-.04l1.7-1,2.32-1.37v22.67ZM117.43,68.89s-.09.02-.13.02c-.05,0-.1,0-.15-.02-.27-.08-.42-.37-.34-.64.02-.06.04-.12.05-.18l-5.86,3.47-1.03.61-1.04.62-.54.32c-.27.16-.55.3-.84.42-.68.28-1.38.45-2.1.51-.35.03-.69.03-1.03,0-.71-.06-1.42-.22-2.09-.5.02.04.05.08.08.11.17.24.11.56-.12.72-.09.06-.19.09-.3.09-.08,0-.15-.02-.22-.05.05.02.09.04.14.06.16.07.32.13.49.19.15.05.29.09.45.14.11.03.22.06.34.08.1.02.2.05.3.06.14.03.29.05.43.07.34.04.68.06,1.03.06s.69-.02,1.03-.06c.14-.02.28-.04.42-.07.11-.02.22-.05.34-.07.11-.02.22-.05.33-.08.14-.04.28-.08.42-.13.17-.06.32-.12.49-.19.05-.02.09-.04.14-.06,0,0,.01,0,.02-.01.27-.11.53-.25.78-.4l8.63-5.11s-.07.03-.11.04Z"/>
          <path class="cls-1" d="M119.05,86.91h-13.73c-.28,0-.52-.23-.52-.52v-6.47c0-.28.23-.52.52-.52h13.73c.28,0,.52.23.52.52v6.47c0,.28-.23.52-.52.52ZM105.83,85.88h12.7v-5.44h-12.7v5.44Z"/>
          <path class="cls-1" d="M116.5,83.68h-8.65c-.28,0-.52-.23-.52-.52s.23-.52.52-.52h8.65c.28,0,.52.23.52.52s-.23.52-.52.52Z"/>
          <path class="cls-1" d="M96.29,86.91h-5.8c-.28,0-.52-.23-.52-.52v-8.1c0-.28.23-.52.52-.52s.52.23.52.52v7.59h5.28c.28,0,.52.23.52.52s-.23.52-.52.52Z"/>
          <path class="cls-1" d="M108.98,72.1c0,.22-.02.44-.06.65-.09.52-.3,1.01-.61,1.45-.05.07-.11.12-.18.16,0,0-.01.01-.02.01-.07.03-.15.05-.22.05-.1,0-.21-.03-.29-.09-.23-.16-.29-.48-.12-.72.03-.04.05-.08.08-.12.26-.42.41-.89.41-1.39,0-1.37-1.08-2.51-2.5-2.73-.17-.03-.34-.04-.51-.04s-.35-.01-.52-.04c-1.99-.24-3.53-1.84-3.53-3.77s1.54-3.54,3.53-3.77c.17-.02.34-.04.52-.04s.35.01.51.04c1.99.24,3.53,1.84,3.53,3.77,0,.28-.23.51-.52.51s-.51-.23-.51-.51c0-1.37-1.08-2.51-2.5-2.74-.17-.03-.34-.04-.51-.04s-.35.01-.52.05c-1.41.22-2.5,1.37-2.5,2.73s1.08,2.51,2.5,2.73c.16.04.34.05.52.05s.35.01.51.04c1.99.24,3.53,1.84,3.53,3.77Z"/>
          <path class="cls-1" d="M102.28,74.32c-.09.06-.19.09-.3.09-.08,0-.15-.02-.22-.05,0,0-.01,0-.02-.01-.07-.04-.14-.09-.18-.16-.31-.44-.52-.93-.61-1.45-.04-.21-.06-.43-.06-.65,0-.28.23-.51.51-.51s.52.23.52.51c0,.49.14.98.41,1.4.02.04.05.08.08.11.17.24.11.56-.12.72Z"/>
          <path class="cls-1" d="M105.45,60.9v13.63c0,.28-.23.51-.51.51s-.52-.23-.52-.51v-13.63c0-.29.24-.52.52-.52s.51.23.51.52Z"/>
          <path class="cls-3" d="M110.85,58.79c-.09-.09-.22-.15-.37-.15h-11.09c-.15,0-.28.06-.37.15-.09.09-.15.22-.15.36v13.28c0,.18.1.35.25.44l1.84,1.09c.25.15.52.29.78.4,0,0,.01.01.02.01.05.02.09.04.14.06.16.07.32.13.49.19.15.05.29.09.45.14.11.03.22.06.34.08.1.02.2.05.3.06.14.03.29.05.43.07.34.04.68.06,1.03.06s.69-.02,1.03-.06c.14-.02.28-.04.42-.07.11-.02.22-.05.34-.07.11-.02.22-.05.33-.08.14-.04.28-.08.42-.13.17-.06.32-.12.49-.19.05-.02.09-.04.14-.06,0,0,.01,0,.02-.01.27-.11.53-.25.78-.4l1.83-1.09c.16-.09.25-.26.25-.44v-13.28c0-.14-.05-.27-.15-.36ZM108.92,72.75l-.54.32c-.27.16-.55.3-.84.42-.68.28-1.38.45-2.1.51-.35.03-.69.03-1.03,0-.71-.06-1.42-.22-2.09-.5-.29-.12-.57-.26-.84-.42l-.54-.32-1.05-.62v-12.46h10.06v12.46l-1.04.62Z"/>
          <path class="cls-3" d="M107.95,72.1c0,.49-.14.97-.41,1.39-.68.28-1.38.45-2.1.51v-4.63c1.42.22,2.5,1.36,2.5,2.73Z"/>
          <path class="cls-3" d="M104.42,62.79v5.46c-1.41-.22-2.5-1.37-2.5-2.73s1.08-2.51,2.5-2.73Z"/>
          <path class="cls-3" d="M109.96,59.67v12.46l-1.04.62c.04-.21.06-.43.06-.65,0-1.93-1.54-3.53-3.53-3.77v-5.55c1.42.22,2.5,1.37,2.5,2.74,0,.28.23.51.51.51s.52-.23.52-.51c0-1.94-1.54-3.54-3.53-3.77v-.85c0-.29-.23-.52-.51-.52s-.52.23-.52.52v.85c-1.99.24-3.53,1.84-3.53,3.77s1.54,3.54,3.53,3.77v4.7c-.71-.06-1.42-.22-2.09-.5-.26-.42-.41-.9-.41-1.4,0-.28-.23-.51-.52-.51s-.51.23-.51.51c0,.22.02.44.06.65l-1.05-.62v-12.46h10.06Z"/>
          <path class="cls-1" d="M112.77,59.66l-1.32-.92c-.2.01-.4.03-.6.05-.15.02-.29.04-.44.06-.25.04-.44.25-.44.51v4.47c0,.09.02.18.07.26.14.25.46.33.71.19,0,0,.09-.05.25-.12v-4.35c.66-.08,1.33-.09,2-.06-.07-.01-.15-.04-.22-.09ZM121.08,60.7c-.05-.13-.15-.24-.28-.29-.18-.07-3.73-1.5-7.56-1.69-.59-.03-1.19-.02-1.79.02-.2.01-.4.03-.6.05-.15.02-.29.04-.44.06-.25.04-.44.25-.44.51v13.07c0,.18.1.35.26.45.08.05.17.06.25.06s.18-.02.26-.07l6.8-4.02,1.77-1.04c.14-.08.23-.22.25-.38,0-.01.06-.44.17-1.07.08-.47.18-1.05.31-1.67.07-.35.15-.72.24-1.09.22-.92.49-1.84.79-2.51.06-.12.06-.27.01-.4ZM117.99,67.38s0,0,0,0l-1.13.67-5.86,3.47v-11.71c.66-.08,1.33-.09,2-.06.03,0,.05,0,.08,0h0c2.93.12,5.75,1.04,6.85,1.44-.28.74-.52,1.62-.71,2.49,0,.03-.01.05-.02.08-.32,1.41-.54,2.74-.62,3.29l-.58.34Z"/>
          <path class="cls-1" d="M99.47,58.85c-.15-.02-.3-.04-.45-.06-.2-.02-.4-.04-.6-.05-.6-.05-1.2-.05-1.79-.02-3.83.19-7.37,1.62-7.55,1.69-.13.05-.23.16-.28.29-.05.13-.05.28,0,.4.3.67.57,1.58.79,2.51.09.37.17.73.25,1.08.12.62.23,1.21.31,1.67.11.63.16,1.05.17,1.07.02.16.11.29.25.38l8.57,5.06c.08.05.17.07.27.07.09,0,.18-.02.25-.06.16-.09.26-.27.26-.45v-13.07c0-.25-.18-.47-.44-.51ZM93.01,68.05l-1.14-.67-.58-.34c-.08-.54-.29-1.87-.62-3.27,0-.04-.01-.08-.02-.11-.19-.86-.44-1.74-.71-2.47,1.11-.39,3.93-1.31,6.84-1.44.03,0,.06,0,.09,0,.67-.02,1.34-.01,2,.06v11.71l-5.86-3.47Z"/>
          <path class="cls-1" d="M122.14,66.04c-.1,0-.2-.03-.29-.09l-2.45-1.7c-.23-.16-.29-.48-.13-.72.16-.23.48-.29.72-.13l2.45,1.7c.23.16.29.48.13.72-.1.14-.26.22-.42.22Z"/>
          <path class="cls-1" d="M87.73,66.04c-.16,0-.32-.08-.42-.22-.16-.23-.1-.56.13-.72l2.45-1.7c.23-.16.55-.1.72.13.16.23.1.56-.13.72l-2.45,1.7c-.09.06-.19.09-.29.09Z"/>
          <path class="cls-1" d="M113.07,59.75c-.1,0-.2-.03-.29-.09l-4.51-3.13c-1.99-1.38-4.66-1.38-6.65,0l-4.51,3.13c-.23.16-.55.1-.72-.13-.16-.23-.1-.55.13-.72l4.51-3.13c2.34-1.62,5.49-1.62,7.82,0l4.51,3.13c.23.16.29.48.13.72-.1.14-.26.22-.42.22Z"/>
          <path class="cls-1" d="M117.3,68.91s-.1,0-.15-.02c-.27-.08-.43-.37-.35-.64.47-1.54-.15-3.91-.4-4.77-3.78-.25-5.65.79-5.67.81-.25.14-.56.06-.7-.19-.14-.25-.06-.56.19-.7.09-.05,2.28-1.28,6.61-.91.2.02.38.15.44.35.05.14,1.18,3.5.51,5.72-.07.22-.27.37-.49.37Z"/>
          <path class="cls-1" d="M92.57,68.91c-.22,0-.43-.14-.49-.37-.67-2.22.47-5.58.51-5.72.07-.19.24-.33.44-.35,4.33-.37,6.52.86,6.61.91.25.14.33.46.19.7-.14.25-.46.33-.7.19-.03-.02-1.93-1.05-5.67-.81-.25.86-.87,3.23-.4,4.77.08.27-.07.56-.35.64-.05.01-.1.02-.15.02Z"/>
        </g>
      </g>
    </g>
  </g>
</svg>