<?xml version="1.0" encoding="UTF-8"?>
<svg xmlns="http://www.w3.org/2000/svg" xmlns:xlink="http://www.w3.org/1999/xlink" viewBox="0 0 209.87 170.04">
  <defs>
    <style>
      .cls-1 {
        fill: #fff;
      }

      .cls-2 {
        fill: none;
      }

      .cls-3 {
        fill: #f4b942;
      }

      .cls-4 {
        isolation: isolate;
      }

      .cls-5 {
        mix-blend-mode: soft-light;
        opacity: .29;
      }

      .cls-6 {
        clip-path: url(#clippath);
      }
    </style>
    <clipPath id="clippath">
      <rect class="cls-2" x="11.51" y="11.23" width="186.85" height="147.58" rx="18.21" ry="18.21"/>
    </clipPath>
  </defs>
  <g class="cls-4">
    <g id="Layer_1" data-name="Layer 1">
      <g>
        <g class="cls-6">
          <image class="cls-5" width="1920" height="1080" transform="translate(-105.53 -11.8) scale(.19)" xlink:href="../all apps copy.jpg"/>
        </g>
        <g id="_671_Bulb_Idea_Lamp_Seo_Gear" data-name="671, Bulb, Idea, Lamp, Seo Gear">
          <g>
            <path class="cls-1" d="M104.25,53.1h-.15c-8.76.07-15.93,7.25-15.93,16,0,5.21,2.49,9.97,6.42,12.91,2.19,1.59,3.47,4.15,3.47,6.79v.15c0,.23.23.45.45.45h.46v2.94c0,.98.75,1.74,1.74,1.74h.6v.53c0,1.06.83,1.89,1.89,1.89h1.96c1.06,0,1.89-.83,1.89-1.89v-.53h.6c.98,0,1.74-.75,1.74-1.74v-2.94h.45c.23,0,.46-.23.46-.45v-.15c0-2.64,1.28-5.21,3.4-6.79,3.93-2.94,6.49-7.63,6.49-12.91.15-8.83-7.02-16-15.93-16ZM106.13,94.62c0,.53-.38.91-.91.91h-1.96c-.53,0-.91-.38-.91-.91v-.53h3.77v.53ZM108.55,92.36c0,.45-.38.83-.83.83h-6.87c-.46,0-.83-.38-.83-.83v-.6h8.53v.6ZM108.55,90.85h-8.53v-1.43h8.53v1.43ZM113.23,81.26c-2.27,1.74-3.7,4.38-3.77,7.25h-10.42c-.07-2.79-1.51-5.51-3.85-7.25-3.85-2.87-6.12-7.32-6.04-12.15,0-8.23,6.72-15.02,15.02-15.02h.08c8.3,0,15.1,6.8,15.1,15.1,0,4.68-2.27,9.21-6.11,12.08Z"/>
            <path class="cls-1" d="M104.17,57.25c-6.42.08-11.7,5.28-11.7,11.78,0,3.7,1.74,7.25,4.76,9.51,1.51,1.13,2.49,2.94,2.49,4.83v.08c0,.23.23.45.45.45s.45-.23.45-.45v-.08c0-2.19-1.06-4.3-2.87-5.59-2.79-2.11-4.38-5.28-4.38-8.76,0-5.89,4.83-10.8,10.8-10.8s10.95,4.91,10.95,10.87c0,3.4-1.66,6.64-4.38,8.68-1.74,1.28-2.79,3.4-2.79,5.59v.08c0,.23.23.45.45.45s.45-.23.45-.45v-.08c0-1.89.91-3.7,2.42-4.83,3.02-2.19,4.76-5.74,4.76-9.51.08-6.49-5.28-11.85-11.85-11.78Z"/>
            <path class="cls-3" d="M112.93,68.05l-2.04-.3c-.07-.23-.07-.45-.15-.68l1.58-1.28c.15-.15.23-.38.15-.6l-.6-1.06c-.15-.23-.38-.3-.6-.23l-1.89.75c-.15-.15-.3-.38-.53-.53l.75-1.89c.08-.23,0-.46-.23-.6l-1.06-.6c-.23-.15-.45-.08-.6.15l-1.28,1.58c-.23-.07-.45-.15-.68-.15l-.3-2.04c0-.23-.23-.38-.45-.38h-1.21c-.23,0-.45.15-.45.38l-.3,2.04c-.23.08-.45.08-.68.15l-1.28-1.58c-.15-.15-.38-.23-.6-.15l-1.13.68c-.23.15-.3.38-.23.6l.76,1.89c-.15.15-.38.3-.53.53l-1.81-.76c-.23-.07-.45,0-.6.23l-.6,1.06c-.15.23-.07.45.15.6l1.58,1.28c-.07.23-.15.45-.15.68l-2.04.3c-.23,0-.38.23-.38.45v1.21c0,.23.15.45.38.45l2.04.3c.08.23.08.45.15.68l-1.58,1.28c-.15.15-.23.38-.15.6l.6,1.06c.15.23.38.3.6.23l1.89-.75c.15.15.3.38.53.53l-.75,1.89c-.08.23,0,.46.23.6l1.06.6c.23.15.45.08.6-.15l1.28-1.58c.23.07.45.15.68.15l.3,2.04c0,.23.23.38.45.38h1.21c.23,0,.45-.15.45-.38l.3-2.04c.23-.08.45-.08.68-.15l1.28,1.58c.15.15.38.23.6.08l1.06-.6c.23-.15.3-.38.23-.6l-.75-1.89c.15-.15.38-.3.53-.53l1.89.76c.23.07.45,0,.6-.23l.6-1.06c.15-.23.07-.45-.15-.6l-1.58-1.28c.07-.23.15-.45.15-.68l2.04-.3c.23,0,.38-.23.38-.45v-1.21c0-.23-.15-.45-.38-.45ZM112.32,69.33l-1.96.3c-.23,0-.38.23-.38.38-.07.38-.15.83-.3,1.21-.08.23,0,.38.15.53l1.51,1.21-.23.38-1.81-.68c-.23-.07-.38,0-.53.15-.23.3-.53.6-.83.83-.15.15-.23.38-.15.53l.68,1.81-.38.23-1.13-1.58c-.15-.15-.38-.23-.53-.15-.38.15-.75.23-1.21.3-.23,0-.38.23-.38.38l-.3,1.96h-.38l-.3-1.96c0-.23-.23-.38-.38-.38-.38-.07-.83-.15-1.21-.3-.23-.08-.38,0-.53.15l-1.21,1.51-.38-.23.68-1.81c.07-.23,0-.38-.15-.53-.3-.23-.6-.53-.83-.83-.15-.15-.38-.23-.53-.15l-1.81.75-.23-.38,1.51-1.21c.15-.15.23-.38.15-.53-.15-.38-.23-.75-.3-1.21,0-.23-.23-.38-.38-.38l-1.96-.3v-.38l1.96-.3c.23,0,.38-.23.38-.38.07-.38.15-.83.3-1.21.07-.23,0-.38-.15-.53l-1.51-1.21.23-.38,1.81.68c.23.07.38,0,.53-.15.23-.3.53-.6.83-.83.15-.15.23-.38.15-.53l-.68-1.81.38-.23,1.21,1.51c.15.15.38.23.53.15.38-.15.76-.23,1.21-.3.23,0,.38-.23.38-.38l.3-1.96h.38l.3,1.96c0,.23.23.38.38.38.38.08.83.15,1.21.3.23.07.38,0,.53-.15l1.21-1.51.38.23-.75,1.81c-.08.23,0,.38.15.53.3.23.6.53.83.83.15.15.38.23.53.15l1.81-.68.23.38-1.51,1.21c-.15.15-.23.38-.15.53.15.38.23.75.3,1.21,0,.23.23.38.38.38l1.96.3v.38Z"/>
            <path class="cls-3" d="M109.98,70.01c0-.15.15-.38.38-.38l1.96-.3v-.38l-1.96-.3c-.15,0-.38-.15-.38-.38-.07-.45-.15-.83-.3-1.21-.08-.15,0-.38.15-.53l1.51-1.21-.23-.38-1.81.68c-.15.07-.38,0-.53-.15-.23-.3-.53-.6-.83-.83-.15-.15-.23-.3-.15-.53l.75-1.81-.38-.23-1.21,1.51c-.15.15-.3.23-.53.15-.38-.15-.83-.23-1.21-.3-.15,0-.38-.15-.38-.38l-.3-1.96h-.38l-.3,1.96c0,.15-.15.38-.38.38-.45.08-.83.15-1.21.3-.15.07-.38,0-.53-.15l-1.21-1.51-.38.23.68,1.81c.07.15,0,.38-.15.53-.3.23-.6.53-.83.83-.15.15-.3.23-.53.15l-1.81-.68-.23.38,1.51,1.21c.15.15.23.3.15.53-.15.38-.23.83-.3,1.21,0,.15-.15.38-.38.38l-1.96.3v.38l1.96.3c.15,0,.38.15.38.38.07.45.15.83.3,1.21.07.15,0,.38-.15.53l-1.51,1.21.23.38,1.81-.75c.15-.08.38,0,.53.15.23.3.53.6.83.83.15.15.23.3.15.53l-.68,1.81.38.23,1.21-1.51c.15-.15.3-.23.53-.15.38.15.83.23,1.21.3.15,0,.38.15.38.38l.3,1.96h.38l.3-1.96c0-.15.15-.38.38-.38.46-.07.83-.15,1.21-.3.15-.08.38,0,.53.15l1.13,1.58.38-.23-.68-1.81c-.08-.15,0-.38.15-.53.3-.23.6-.53.83-.83.15-.15.3-.23.53-.15l1.81.68.23-.38-1.51-1.21c-.15-.15-.23-.3-.15-.53.15-.38.23-.83.3-1.21ZM104.4,73.11c-2.19,0-4-1.81-4-4s1.81-4,4-4,4,1.81,4,4-1.81,4-4,4Z"/>
            <path class="cls-1" d="M104.4,66.99c-1.21,0-2.11.98-2.11,2.11s.98,2.11,2.11,2.11c1.21,0,2.11-.98,2.11-2.11s-.98-2.11-2.11-2.11ZM104.4,70.39c-.68,0-1.21-.53-1.21-1.21s.53-1.21,1.21-1.21,1.21.53,1.21,1.21c0,.6-.6,1.21-1.21,1.21Z"/>
          </g>
        </g>
      </g>
    </g>
  </g>
</svg>