<?xml version="1.0" encoding="UTF-8"?>
<svg id="Layer_1" xmlns="http://www.w3.org/2000/svg" version="1.1" viewBox="0 0 157.28 143.74">
  <!-- Generator: Adobe Illustrator 29.8.1, SVG Export Plug-In . SVG Version: 2.1.1 Build 2)  -->
  <defs>
    <style>
      .st0 {
        fill: #85d839;
      }

      .st1 {
        fill: #2475ea;
      }

      .st2 {
        fill: #ddd;
      }
    </style>
  </defs>
  <g>
    <polygon class="st0" points="79.11 86.97 49.11 82.69 49.11 31.25 79.11 26.96 79.11 86.97"/>
    <path d="M79.11,88.04c-.05,0-.1,0-.15-.01l-30-4.29c-.53-.08-.92-.53-.92-1.06V31.25c0-.53.39-.99.92-1.06l30-4.29c.31-.04.62.05.85.25.23.2.37.5.37.81v60.01c0,.31-.13.61-.37.81-.2.17-.45.26-.7.26ZM50.18,81.76l27.86,3.98V28.2l-27.86,3.98v49.58h0Z"/>
    <rect class="st2" x="79.11" y="35.54" width="28.93" height="43.93"/>
    <path d="M108.04,80.51h-28.93c-.57,0-1.04-.46-1.04-1.04v-43.93c0-.57.46-1.04,1.04-1.04h28.93c.57,0,1.04.46,1.04,1.04v43.93c0,.57-.46,1.04-1.04,1.04ZM80.15,78.43h26.86v-41.86h-26.86v41.86Z"/>
    <path d="M57.71,61.48l3.6-5.26-3.03-4.68c-.29-.45-.5-.84-.64-1.17-.14-.33-.21-.64-.21-.94s.14-.58.41-.83.61-.37,1-.37c.45,0,.81.13,1.06.4s.6.76,1.05,1.49l2.42,3.91,2.58-3.91c.21-.33.39-.61.54-.85.15-.23.29-.43.43-.58s.3-.27.47-.35c.17-.08.37-.12.6-.12.41,0,.75.12,1,.37s.39.54.39.87c0,.49-.28,1.16-.85,2l-3.17,4.74,3.42,5.26c.31.46.53.84.67,1.15.14.3.21.59.21.86s-.06.49-.19.7c-.12.21-.3.38-.53.5-.23.12-.48.19-.77.19-.31,0-.57-.06-.78-.19-.21-.13-.38-.29-.52-.48-.13-.19-.38-.56-.74-1.11l-2.83-4.46-3.01,4.59c-.23.37-.4.62-.5.77s-.22.29-.36.43-.3.25-.49.33c-.19.08-.41.12-.67.12-.4,0-.72-.12-.98-.36s-.39-.59-.39-1.05c0-.54.27-1.2.8-1.99v.02Z"/>
    <path d="M102.68,49.43h-23.57c-.57,0-1.04-.46-1.04-1.04v-6.43c0-.57.46-1.04,1.04-1.04h23.57c.57,0,1.04.46,1.04,1.04v6.43c0,.57-.46,1.04-1.04,1.04ZM80.15,47.36h21.5v-4.36h-21.5v4.36Z"/>
    <path d="M102.68,55.86h-23.57c-.57,0-1.04-.46-1.04-1.04v-6.43c0-.57.46-1.04,1.04-1.04h23.57c.57,0,1.04.46,1.04,1.04v6.43c0,.57-.46,1.04-1.04,1.04ZM80.15,53.79h21.5v-4.36h-21.5v4.36Z"/>
    <path d="M102.68,62.29h-23.57c-.57,0-1.04-.46-1.04-1.04v-6.43c0-.57.46-1.04,1.04-1.04h23.57c.57,0,1.04.46,1.04,1.04v6.43c0,.57-.46,1.04-1.04,1.04ZM80.15,60.22h21.5v-4.36h-21.5v4.36Z"/>
    <path d="M102.68,68.72h-23.57c-.57,0-1.04-.46-1.04-1.04v-6.43c0-.57.46-1.04,1.04-1.04h23.57c.57,0,1.04.46,1.04,1.04v6.43c0,.57-.46,1.04-1.04,1.04ZM80.15,66.65h21.5v-4.36h-21.5v4.36Z"/>
    <path d="M102.68,75.15h-23.57c-.57,0-1.04-.46-1.04-1.04v-6.43c0-.57.46-1.04,1.04-1.04h23.57c.57,0,1.04.46,1.04,1.04v6.43c0,.57-.46,1.04-1.04,1.04ZM80.15,73.08h21.5v-4.36h-21.5v4.36Z"/>
    <path d="M95.18,75.15c-.57,0-1.04-.46-1.04-1.04v-32.15c0-.57.46-1.04,1.04-1.04s1.04.46,1.04,1.04v32.15c0,.57-.46,1.04-1.04,1.04Z"/>
  </g>
  <g>
    <path class="st1" d="M63,104.6h-7.83v5.31h8.6l-.3,1.99h-10.61v-15.85h10.5v1.99h-8.2v4.57h7.83v1.99Z"/>
    <path class="st1" d="M67.88,100.28c1.55,2.51,2.21,3.57,2.61,4.21h.02c.47-.74,1.4-2.21,2.69-4.21h2.5l-3.9,5.58,3.93,6.04h-2.57c-1.34-2.21-2.26-3.72-2.7-4.46h-.02c-.37.64-1.28,2.18-2.69,4.46h-2.49l3.84-5.78-3.74-5.84h2.52Z"/>
    <path class="st1" d="M86.54,108.31c-.48,1.99-1.83,3.87-4.88,3.87-3.28,0-5.24-2.34-5.24-6.02,0-3.31,1.91-6.15,5.39-6.15s4.6,2.47,4.74,3.93h-2.21c-.27-1.14-.97-2.09-2.57-2.09-1.94,0-3.04,1.67-3.04,4.23s1.08,4.26,2.98,4.26c1.39,0,2.18-.75,2.62-2.04h2.22Z"/>
    <path class="st1" d="M90.46,106.52c.01,2.19,1.11,3.82,3.01,3.82,1.74,0,2.29-.87,2.65-1.69h2.25c-.45,1.48-1.7,3.53-4.97,3.53-3.69,0-5.21-2.95-5.21-5.95,0-3.49,1.77-6.22,5.34-6.22,3.79,0,5.05,2.98,5.05,5.54,0,.36,0,.65-.03.97h-8.09ZM96.32,104.99c-.02-1.8-.9-3.26-2.81-3.26s-2.79,1.35-2.98,3.26h5.79Z"/>
    <path class="st1" d="M101.11,111.9v-16.74h2.24v16.74h-2.24Z"/>
  </g>
</svg>