<?xml version="1.0" encoding="UTF-8"?>
<svg id="Layer_1" data-name="Layer 1" xmlns="http://www.w3.org/2000/svg" viewBox="0 0 218.55 80.94">
  <defs>
    <style>
      .cls-1 {
        fill: #2475ea;
        fill-rule: evenodd;
      }

      .cls-2 {
        fill: #58595b;
      }
    </style>
  </defs>
  <g>
    <path class="cls-1" d="M45.46,42.77c0-.14,0-.31-.01-.38-.07-2.11-.32-5.2-1.12-8.99-.09-.48-.33-1.32-1.04-2.01-.84-.82-1.91-1-2.61-1.07-4.13-.46-9.47.91-14.08,2.13-.62.16-1.15.31-1.57.42-.42-.11-.96-.25-1.57-.42-4.61-1.22-9.95-2.59-14.08-2.13-.69.08-1.77.25-2.61,1.07-.7.69-.94,1.53-1.04,2.01-.81,3.78-1.05,6.88-1.12,8.99,0,.07,0,.24-.01.38,0,0-.24,9.23,1.04,17.51,0,.02,0,.04,0,.04.38,2.4,1.12,3.14,1.12,3.14.14.14.28.25.41.34,0,0,.17.11.36.21.85.42,2.04.56,2.04.56,1.64.19,2.07.2,2.07.2,2.73.24,6.81.51,13.35.51h0s.02,0,.03,0,.02,0,.03,0h0c6.54,0,10.62-.27,13.35-.51,0,0,.43,0,2.07-.2,0,0,1.19-.14,2.04-.56.19-.09.36-.21.36-.21.13-.09.27-.19.41-.34,0,0,.74-.74,1.12-3.14,0,0,0-.02,0-.04,1.28-8.27,1.04-17.51,1.04-17.51Z"/>
    <path class="cls-1" d="M24.84,31.12c-9.06-1.28-15.08-6.27-16.43-16.96,12.4,2.48,14.76,6.24,16.43,16.96h0Z"/>
    <path class="cls-1" d="M34.94,20c-6.86,1.23-9.94,5.22-10.53,10.96.14.06.29.11.43.16,6.61-1.43,8.93-3.22,10.09-11.12Z"/>
  </g>
  <g>
    <path class="cls-2" d="M65.57,48.31h-3.92l-1.14-3.56h-5.68l-1.13,3.56h-3.9l5.82-15.98h4.27l5.68,15.98ZM59.68,41.99l-1.72-5.37c-.13-.4-.22-.88-.27-1.44h-.09c-.04.47-.13.93-.28,1.39l-1.74,5.42h4.09Z"/>
    <path class="cls-2" d="M70.74,48.31h-3.52v-16.9h3.52v16.9Z"/>
    <path class="cls-2" d="M79.91,43.45h-6.1v-2.46h6.1v2.46Z"/>
    <path class="cls-2" d="M101.49,48.31h-3.56v-9.56c0-1.03.04-2.17.13-3.42h-.09c-.19.98-.35,1.69-.5,2.12l-3.75,10.87h-2.94l-3.81-10.76c-.1-.29-.27-1.03-.5-2.23h-.1c.1,1.58.14,2.96.14,4.15v8.84h-3.24v-15.98h5.27l3.27,9.47c.26.76.45,1.52.57,2.29h.07c.2-.88.41-1.65.64-2.31l3.27-9.45h5.14v15.98Z"/>
    <path class="cls-2" d="M110.22,48.59c-1.9,0-3.4-.53-4.49-1.6-1.09-1.07-1.63-2.51-1.63-4.34s.56-3.36,1.69-4.43c1.13-1.07,2.66-1.6,4.58-1.6s3.38.53,4.46,1.6c1.08,1.07,1.62,2.48,1.62,4.23,0,1.89-.56,3.39-1.67,4.49-1.11,1.1-2.63,1.65-4.56,1.65ZM110.31,39.32c-.83,0-1.48.29-1.94.86-.46.57-.69,1.38-.69,2.43,0,2.19.88,3.29,2.65,3.29s2.53-1.13,2.53-3.38c0-2.13-.85-3.2-2.55-3.2Z"/>
    <path class="cls-2" d="M125.64,48.18c-.52.27-1.3.41-2.35.41-2.48,0-3.72-1.29-3.72-3.87v-5.23h-1.85v-2.6h1.85v-2.46l3.51-1v3.47h2.56v2.6h-2.56v4.61c0,1.19.47,1.78,1.42,1.78.37,0,.75-.11,1.15-.32v2.61Z"/>
    <path class="cls-2" d="M137.12,48.31h-3.33v-1.64h-.04c-.77,1.28-1.9,1.92-3.4,1.92-1.11,0-1.98-.31-2.61-.94-.64-.63-.95-1.47-.95-2.51,0-2.21,1.31-3.49,3.93-3.83l3.1-.41c0-1.25-.68-1.87-2.03-1.87s-2.65.41-3.88,1.22v-2.65c.49-.25,1.16-.48,2.01-.67.85-.19,1.63-.29,2.32-.29,3.25,0,4.88,1.62,4.88,4.87v6.82ZM133.81,43.68v-.77l-2.07.27c-1.14.15-1.72.67-1.72,1.55,0,.4.14.73.42.99.28.26.66.38,1.13.38.66,0,1.2-.23,1.62-.69.42-.46.62-1.03.62-1.73Z"/>
    <path class="cls-2" d="M158.03,48.31h-3.51v-6.51c0-1.66-.61-2.49-1.83-2.49-.58,0-1.05.25-1.42.75-.36.5-.55,1.12-.55,1.86v6.39h-3.52v-6.58c0-1.61-.6-2.42-1.79-2.42-.6,0-1.08.24-1.44.71-.36.48-.54,1.12-.54,1.94v6.34h-3.52v-11.41h3.52v1.78h.04c.36-.61.88-1.11,1.53-1.49.66-.38,1.38-.57,2.16-.57,1.61,0,2.72.71,3.31,2.13.87-1.42,2.15-2.13,3.83-2.13,2.48,0,3.72,1.53,3.72,4.59v7.1Z"/>
    <path class="cls-2" d="M178.94,48.31h-3.51v-6.51c0-1.66-.61-2.49-1.83-2.49-.58,0-1.05.25-1.42.75-.36.5-.55,1.12-.55,1.86v6.39h-3.52v-6.58c0-1.61-.6-2.42-1.79-2.42-.6,0-1.08.24-1.44.71-.36.48-.54,1.12-.54,1.94v6.34h-3.52v-11.41h3.52v1.78h.04c.36-.61.87-1.11,1.53-1.49.66-.38,1.38-.57,2.16-.57,1.61,0,2.72.71,3.31,2.13.87-1.42,2.15-2.13,3.83-2.13,2.48,0,3.72,1.53,3.72,4.59v7.1Z"/>
    <path class="cls-2" d="M191.98,43.61h-7.45c.12,1.66,1.16,2.49,3.13,2.49,1.26,0,2.36-.3,3.31-.89v2.54c-1.06.56-2.43.85-4.11.85-1.84,0-3.27-.51-4.29-1.53-1.02-1.02-1.53-2.45-1.53-4.27s.55-3.4,1.65-4.5c1.1-1.11,2.45-1.66,4.06-1.66s2.95.49,3.86,1.48c.91.99,1.37,2.33,1.37,4.02v1.48ZM188.72,41.45c0-1.63-.66-2.45-1.98-2.45-.56,0-1.05.23-1.47.7-.41.47-.66,1.05-.75,1.75h4.2Z"/>
    <path class="cls-2" d="M212.2,48.31h-3.51v-6.51c0-1.66-.61-2.49-1.83-2.49-.58,0-1.05.25-1.42.75-.36.5-.55,1.12-.55,1.86v6.39h-3.52v-6.58c0-1.61-.6-2.42-1.79-2.42-.6,0-1.08.24-1.44.71-.36.48-.54,1.12-.54,1.94v6.34h-3.52v-11.41h3.52v1.78h.04c.36-.61.87-1.11,1.53-1.49.66-.38,1.38-.57,2.16-.57,1.61,0,2.72.71,3.31,2.13.87-1.42,2.15-2.13,3.83-2.13,2.48,0,3.72,1.53,3.72,4.59v7.1Z"/>
  </g>
  <g>
    <path class="cls-2" d="M139.91,64.4v-1.92h-3.5v-.9l3.39-4.63h1.06v4.68h.96l-.11.85h-.86v1.92h-.95ZM139.91,59.75c0-.58,0-1.31.03-1.8-.3.58-1.76,2.56-2.55,3.68h2.53v-1.88Z"/>
    <path class="cls-2" d="M147.98,60.62c0,1.85-.53,3.92-2.61,3.92s-2.6-1.94-2.6-3.86.61-3.86,2.63-3.86,2.57,1.9,2.57,3.81ZM143.83,60.68c0,1.42.25,3.02,1.56,3.02s1.55-1.52,1.55-3.07c0-1.44-.25-2.97-1.52-2.97s-1.59,1.38-1.59,3.02Z"/>
    <path class="cls-2" d="M152.61,58.66c.93,2.75,1.44,4.28,1.59,4.86h.01c.19-.65.6-1.96,1.53-4.86h1l-2.07,6.01c-.58,1.68-1.02,2.11-2.19,2.11-.18,0-.4-.01-.62-.04v-.86c.15.02.31.03.47.03.73,0,1-.32,1.34-1.28l-2.15-5.97h1.07Z"/>
    <path class="cls-2" d="M158.32,61.71c0,1.17.6,2,1.57,2,.91,0,1.2-.47,1.39-.89h1c-.23.74-.84,1.72-2.42,1.72-1.81,0-2.54-1.47-2.54-2.95,0-1.71.86-3.07,2.61-3.07,1.85,0,2.46,1.49,2.46,2.71,0,.17,0,.32-.02.48h-4.05ZM161.37,61.01c-.01-.94-.49-1.7-1.47-1.7s-1.45.7-1.56,1.7h3.02Z"/>
    <path class="cls-2" d="M167.93,63.15c0,.52.05,1.09.08,1.25h-.95c-.05-.13-.08-.4-.09-.75-.2.38-.66.89-1.77.89-1.35,0-1.93-.88-1.93-1.76,0-1.28,1.01-1.87,2.71-1.87h.98v-.49c0-.51-.16-1.12-1.24-1.12-.96,0-1.12.48-1.23.92h-.96c.08-.79.57-1.71,2.22-1.7,1.4,0,2.18.58,2.18,1.88v2.75ZM166.96,61.6h-.93c-1.15,0-1.76.32-1.76,1.13,0,.6.41,1.03,1.12,1.03,1.38,0,1.57-.93,1.57-1.97v-.18Z"/>
    <path class="cls-2" d="M169.64,60.22c0-.8,0-1.25-.01-1.56h.97c.02.16.03.61.03,1.17.3-.78.99-1.28,1.93-1.31v.99c-1.18.04-1.93.65-1.93,2.1v2.79h-.99v-4.18Z"/>
    <path class="cls-2" d="M174.14,62.76c.16.63.63,1,1.41,1,.84,0,1.18-.36,1.18-.89s-.26-.79-1.36-1.05c-1.64-.4-1.98-.9-1.98-1.68s.6-1.61,2.07-1.61,2.09.86,2.16,1.66h-.96c-.08-.37-.36-.89-1.25-.89-.8,0-1.04.39-1.04.76,0,.43.24.64,1.29.89,1.74.41,2.09.99,2.09,1.85,0,1.01-.8,1.74-2.23,1.74s-2.22-.75-2.36-1.78h.99Z"/>
    <path class="cls-2" d="M186.82,61.52c0,1.65-.95,3.02-2.7,3.02-1.65,0-2.64-1.27-2.64-3s.98-3.02,2.71-3.02c1.59,0,2.64,1.19,2.64,3ZM182.5,61.53c0,1.26.63,2.18,1.66,2.18s1.64-.87,1.64-2.17-.59-2.18-1.66-2.18-1.64.87-1.64,2.18Z"/>
    <path class="cls-2" d="M188.35,64.4v-4.93h-.93v-.81h.93v-.69c0-1.06.4-2,1.67-2,.21,0,.5.03.64.08v.84c-.14-.03-.35-.05-.5-.05-.59,0-.81.36-.81,1.2v.63h1.15v.81h-1.15v4.93h-.99Z"/>
    <path class="cls-2" d="M199.25,60.72h-3.92v2.79h4.3l-.13.9h-5.19v-7.88h5.13v.9h-4.11v2.41h3.92v.9Z"/>
    <path class="cls-2" d="M202.09,60.93v3.47h-1.04v-7.88h3.08c1.62,0,2.48.88,2.48,2.11,0,1.02-.59,1.65-1.34,1.85.64.17,1.2.65,1.2,2.02v.34c0,.54-.03,1.23.11,1.56h-1.02c-.14-.34-.13-.95-.13-1.69v-.17c0-1.12-.32-1.61-1.73-1.61h-1.61ZM202.09,60.05h1.71c1.2,0,1.73-.45,1.73-1.34,0-.84-.55-1.31-1.62-1.31h-1.83v2.65Z"/>
    <path class="cls-2" d="M208.39,56.52h2.99c1.53,0,2.58.86,2.58,2.29,0,1.54-1.11,2.35-2.65,2.35h-1.88v3.24h-1.05v-7.88ZM209.44,60.29h1.83c1.08,0,1.62-.53,1.62-1.44s-.65-1.44-1.58-1.44h-1.87v2.88Z"/>
  </g>
</svg>